<mxfile host="app.diagrams.net" agent="Mozilla/5.0 (Windows NT 10.0; Win64; x64) AppleWebKit/537.36 (KHTML, like Gecko) Chrome/138.0.0.0 Safari/537.36" version="28.0.7">
  <diagram name="Page-1" id="XQqPYFmA4cT0Rj5hBHSN">
    <mxGraphModel dx="2050" dy="1950" grid="1" gridSize="10" guides="1" tooltips="1" connect="1" arrows="1" fold="1" page="1" pageScale="1" pageWidth="850" pageHeight="1100" math="0" shadow="0">
      <root>
        <mxCell id="0" />
        <mxCell id="1" parent="0" />
        <UserObject label="" plantUmlData="{&#xa;  &quot;data&quot;: &quot;@startuml\n|Guest|\nstart\n:Chọn sản phẩm;\n:Chọn số lượng;\n:Nhấn \&quot;Thêm vào giỏ hàng\&quot;;\n\n|System|\n:Kiểm tra tồn kho;\nif (Sản phẩm còn hàng?) then (Yes)\n  :Thêm sản phẩm vào giỏ;\n  :Cập nhật số lượng và giá;\n  :Hiển thị giỏ hàng đã cập nhật;\nelse (No)\n  :Thông báo \&quot;Sản phẩm đã hết hàng\&quot;;\nendif\n\n|Guest|\n:Xem giỏ hàng;\nstop\n@enduml\n&quot;,&#xa;  &quot;format&quot;: &quot;svg&quot;&#xa;}" id="o4Ry2LVALnNqbZM6HUpt-1">
          <mxCell style="shape=image;noLabel=1;verticalAlign=top;aspect=fixed;imageAspect=0;image=data:image/svg+xml,PHN2ZyB4bWxucz0iaHR0cDovL3d3dy53My5vcmcvMjAwMC9zdmciIHhtbG5zOnhsaW5rPSJodHRwOi8vd3d3LnczLm9yZy8xOTk5L3hsaW5rIiBjb250ZW50U3R5bGVUeXBlPSJ0ZXh0L2NzcyIgZGF0YS1kaWFncmFtLXR5cGU9IkFDVElWSVRZIiBoZWlnaHQ9IjU5NnB4IiBwcmVzZXJ2ZUFzcGVjdFJhdGlvPSJub25lIiBzdHlsZT0id2lkdGg6NjQ2cHg7aGVpZ2h0OjU5NnB4O2JhY2tncm91bmQ6I0ZGRkZGRjsiIHZlcnNpb249IjEuMSIgdmlld0JveD0iMCAwIDY0NiA1OTYiIHdpZHRoPSI2NDZweCIgem9vbUFuZFBhbj0ibWFnbmlmeSI+PGRlZnMvPjxnPjxyZWN0IGZpbGw9Im5vbmUiIGhlaWdodD0iMTkuMjY1NiIgc3R5bGU9InN0cm9rZTpub25lO3N0cm9rZS13aWR0aDoxOyIgd2lkdGg9IjYxMy41IiB4PSIxNSIgeT0iMTEiLz48ZWxsaXBzZSBjeD0iMTAzIiBjeT0iNDUuMjY1NiIgZmlsbD0iIzIyMjIyMiIgcng9IjEwIiByeT0iMTAiIHN0eWxlPSJzdHJva2U6IzIyMjIyMjtzdHJva2Utd2lkdGg6MTsiLz48cmVjdCBmaWxsPSIjRjFGMUYxIiBoZWlnaHQ9IjMyLjg0MzgiIHJ4PSIxMi41IiByeT0iMTIuNSIgc3R5bGU9InN0cm9rZTojMTgxODE4O3N0cm9rZS13aWR0aDowLjU7IiB3aWR0aD0iOTgiIHg9IjU0IiB5PSI3NS4yNjU2Ii8+PHRleHQgZmlsbD0iIzAwMDAwMCIgZm9udC1mYW1pbHk9InNhbnMtc2VyaWYiIGZvbnQtc2l6ZT0iMTIiIGxlbmd0aEFkanVzdD0ic3BhY2luZyIgdGV4dExlbmd0aD0iNzgiIHg9IjY0IiB5PSI5Ni42MDk0Ij5DaCYjNzg4NTtuIHMmIzc4NDM7biBwaCYjNzg0OTttPC90ZXh0PjxyZWN0IGZpbGw9IiNGMUYxRjEiIGhlaWdodD0iMzIuODQzOCIgcng9IjEyLjUiIHJ5PSIxMi41IiBzdHlsZT0ic3Ryb2tlOiMxODE4MTg7c3Ryb2tlLXdpZHRoOjAuNTsiIHdpZHRoPSI5OCIgeD0iNTQiIHk9IjEyOC4xMDk0Ii8+PHRleHQgZmlsbD0iIzAwMDAwMCIgZm9udC1mYW1pbHk9InNhbnMtc2VyaWYiIGZvbnQtc2l6ZT0iMTIiIGxlbmd0aEFkanVzdD0ic3BhY2luZyIgdGV4dExlbmd0aD0iNzgiIHg9IjY0IiB5PSIxNDkuNDUzMSI+Q2gmIzc4ODU7biBzJiM3ODg5OyBsJiM0MzI7JiM3OTA3O25nPC90ZXh0PjxyZWN0IGZpbGw9IiNGMUYxRjEiIGhlaWdodD0iMzIuODQzOCIgcng9IjEyLjUiIHJ5PSIxMi41IiBzdHlsZT0ic3Ryb2tlOiMxODE4MTg7c3Ryb2tlLXdpZHRoOjAuNTsiIHdpZHRoPSIxNjQiIHg9IjIxIiB5PSIxODAuOTUzMSIvPjx0ZXh0IGZpbGw9IiMwMDAwMDAiIGZvbnQtZmFtaWx5PSJzYW5zLXNlcmlmIiBmb250LXNpemU9IjEyIiBsZW5ndGhBZGp1c3Q9InNwYWNpbmciIHRleHRMZW5ndGg9IjE0NCIgeD0iMzEiIHk9IjIwMi4yOTY5Ij5OaCYjNzg0NTtuICJUaCYjMjM0O20gdiYjMjI0O28gZ2kmIzc4ODc7IGgmIzIyNDtuZyI8L3RleHQ+PHJlY3QgZmlsbD0iI0YxRjFGMSIgaGVpZ2h0PSIzMi44NDM4IiByeD0iMTIuNSIgcnk9IjEyLjUiIHN0eWxlPSJzdHJva2U6IzE4MTgxODtzdHJva2Utd2lkdGg6MC41OyIgd2lkdGg9IjkyIiB4PSI1NyIgeT0iNTA5LjE3MTkiLz48dGV4dCBmaWxsPSIjMDAwMDAwIiBmb250LWZhbWlseT0ic2Fucy1zZXJpZiIgZm9udC1zaXplPSIxMiIgbGVuZ3RoQWRqdXN0PSJzcGFjaW5nIiB0ZXh0TGVuZ3RoPSI3MiIgeD0iNjciIHk9IjUzMC41MTU2Ij5YZW0gZ2kmIzc4ODc7IGgmIzIyNDtuZzwvdGV4dD48ZWxsaXBzZSBjeD0iMTAzIiBjeT0iNTczLjAxNTYiIGZpbGw9Im5vbmUiIHJ4PSIxMSIgcnk9IjExIiBzdHlsZT0ic3Ryb2tlOiMyMjIyMjI7c3Ryb2tlLXdpZHRoOjE7Ii8+PGVsbGlwc2UgY3g9IjEwMyIgY3k9IjU3My4wMTU2IiBmaWxsPSIjMjIyMjIyIiByeD0iNiIgcnk9IjYiIHN0eWxlPSJzdHJva2U6IzIyMjIyMjtzdHJva2Utd2lkdGg6MTsiLz48bGluZSBzdHlsZT0ic3Ryb2tlOiMwMDAwMDA7c3Ryb2tlLXdpZHRoOjEuNTsiIHgxPSIxNSIgeDI9IjE1IiB5MT0iMTEiIHkyPSI1ODQuMDE1NiIvPjxyZWN0IGZpbGw9IiNGMUYxRjEiIGhlaWdodD0iMzIuODQzOCIgcng9IjEyLjUiIHJ5PSIxMi41IiBzdHlsZT0ic3Ryb2tlOiMxODE4MTg7c3Ryb2tlLXdpZHRoOjAuNTsiIHdpZHRoPSIxMTYiIHg9IjM0NS41IiB5PSIyMzMuNzk2OSIvPjx0ZXh0IGZpbGw9IiMwMDAwMDAiIGZvbnQtZmFtaWx5PSJzYW5zLXNlcmlmIiBmb250LXNpemU9IjEyIiBsZW5ndGhBZGp1c3Q9InNwYWNpbmciIHRleHRMZW5ndGg9Ijk2IiB4PSIzNTUuNSIgeT0iMjU1LjE0MDYiPktpJiM3ODc1O20gdHJhIHQmIzc4OTE7biBraG88L3RleHQ+PHBvbHlnb24gZmlsbD0iI0YxRjFGMSIgcG9pbnRzPSIzNTQsMjg2LjY0MDYsNDUzLDI4Ni42NDA2LDQ2NSwyOTguNjQwNiw0NTMsMzEwLjY0MDYsMzU0LDMxMC42NDA2LDM0MiwyOTguNjQwNiwzNTQsMjg2LjY0MDYiIHN0eWxlPSJzdHJva2U6IzE4MTgxODtzdHJva2Utd2lkdGg6MC41OyIvPjx0ZXh0IGZpbGw9IiMwMDAwMDAiIGZvbnQtZmFtaWx5PSJzYW5zLXNlcmlmIiBmb250LXNpemU9IjExIiBsZW5ndGhBZGp1c3Q9InNwYWNpbmciIHRleHRMZW5ndGg9Ijk5IiB4PSIzNTQiIHk9IjMwMy4xNTIzIj5TJiM3ODQzO24gcGgmIzc4NDk7bSBjJiMyNDI7biBoJiMyMjQ7bmc/PC90ZXh0Pjx0ZXh0IGZpbGw9IiMwMDAwMDAiIGZvbnQtZmFtaWx5PSJzYW5zLXNlcmlmIiBmb250LXNpemU9IjExIiBsZW5ndGhBZGp1c3Q9InNwYWNpbmciIHRleHRMZW5ndGg9IjE2LjUiIHg9IjMyNS41IiB5PSIyOTcuMjY1NiI+WWVzPC90ZXh0Pjx0ZXh0IGZpbGw9IiMwMDAwMDAiIGZvbnQtZmFtaWx5PSJzYW5zLXNlcmlmIiBmb250LXNpemU9IjExIiBsZW5ndGhBZGp1c3Q9InNwYWNpbmciIHRleHRMZW5ndGg9IjExIiB4PSI0NjUiIHk9IjI5Ny4yNjU2Ij5ObzwvdGV4dD48cmVjdCBmaWxsPSIjRjFGMUYxIiBoZWlnaHQ9IjMyLjg0MzgiIHJ4PSIxMi41IiByeT0iMTIuNSIgc3R5bGU9InN0cm9rZTojMTgxODE4O3N0cm9rZS13aWR0aDowLjU7IiB3aWR0aD0iMTQ2IiB4PSIyMTkiIHk9IjMyMC42NDA2Ii8+PHRleHQgZmlsbD0iIzAwMDAwMCIgZm9udC1mYW1pbHk9InNhbnMtc2VyaWYiIGZvbnQtc2l6ZT0iMTIiIGxlbmd0aEFkanVzdD0ic3BhY2luZyIgdGV4dExlbmd0aD0iMTI2IiB4PSIyMjkiIHk9IjM0MS45ODQ0Ij5UaCYjMjM0O20gcyYjNzg0MztuIHBoJiM3ODQ5O20gdiYjMjI0O28gZ2kmIzc4ODc7PC90ZXh0PjxyZWN0IGZpbGw9IiNGMUYxRjEiIGhlaWdodD0iMzIuODQzOCIgcng9IjEyLjUiIHJ5PSIxMi41IiBzdHlsZT0ic3Ryb2tlOiMxODE4MTg7c3Ryb2tlLXdpZHRoOjAuNTsiIHdpZHRoPSIxNjQiIHg9IjIxMCIgeT0iMzczLjQ4NDQiLz48dGV4dCBmaWxsPSIjMDAwMDAwIiBmb250LWZhbWlseT0ic2Fucy1zZXJpZiIgZm9udC1zaXplPSIxMiIgbGVuZ3RoQWRqdXN0PSJzcGFjaW5nIiB0ZXh0TGVuZ3RoPSIxNDQiIHg9IjIyMCIgeT0iMzk0LjgyODEiPkMmIzc4NTM7cCBuaCYjNzg1Mzt0IHMmIzc4ODk7IGwmIzQzMjsmIzc5MDc7bmcgdiYjMjI0OyBnaSYjMjI1OzwvdGV4dD48cmVjdCBmaWxsPSIjRjFGMUYxIiBoZWlnaHQ9IjMyLjg0MzgiIHJ4PSIxMi41IiByeT0iMTIuNSIgc3R5bGU9InN0cm9rZTojMTgxODE4O3N0cm9rZS13aWR0aDowLjU7IiB3aWR0aD0iMTk0IiB4PSIxOTUiIHk9IjQyNi4zMjgxIi8+PHRleHQgZmlsbD0iIzAwMDAwMCIgZm9udC1mYW1pbHk9InNhbnMtc2VyaWYiIGZvbnQtc2l6ZT0iMTIiIGxlbmd0aEFkanVzdD0ic3BhY2luZyIgdGV4dExlbmd0aD0iMTc0IiB4PSIyMDUiIHk9IjQ0Ny42NzE5Ij5IaSYjNzg3NTtuIHRoJiM3ODgzOyBnaSYjNzg4NzsgaCYjMjI0O25nICYjMjczOyYjMjI3OyBjJiM3ODUzO3AgbmgmIzc4NTM7dDwvdGV4dD48cmVjdCBmaWxsPSIjRjFGMUYxIiBoZWlnaHQ9IjMyLjg0MzgiIHJ4PSIxMi41IiByeT0iMTIuNSIgc3R5bGU9InN0cm9rZTojMTgxODE4O3N0cm9rZS13aWR0aDowLjU7IiB3aWR0aD0iMjEyIiB4PSI0MDkiIHk9IjMyMC42NDA2Ii8+PHRleHQgZmlsbD0iIzAwMDAwMCIgZm9udC1mYW1pbHk9InNhbnMtc2VyaWYiIGZvbnQtc2l6ZT0iMTIiIGxlbmd0aEFkanVzdD0ic3BhY2luZyIgdGV4dExlbmd0aD0iMTkyIiB4PSI0MTkiIHk9IjM0MS45ODQ0Ij5UaCYjMjQ0O25nIGImIzIyNTtvICJTJiM3ODQzO24gcGgmIzc4NDk7bSAmIzI3MzsmIzIyNzsgaCYjNzg3MTt0IGgmIzIyNDtuZyI8L3RleHQ+PHBvbHlnb24gZmlsbD0iI0YxRjFGMSIgcG9pbnRzPSI0MDMuNSw0NjUuMTcxOSw0MTUuNSw0NzcuMTcxOSw0MDMuNSw0ODkuMTcxOSwzOTEuNSw0NzcuMTcxOSw0MDMuNSw0NjUuMTcxOSIgc3R5bGU9InN0cm9rZTojMTgxODE4O3N0cm9rZS13aWR0aDowLjU7Ii8+PGxpbmUgc3R5bGU9InN0cm9rZTojMDAwMDAwO3N0cm9rZS13aWR0aDoxLjU7IiB4MT0iMTg5IiB4Mj0iMTg5IiB5MT0iMTEiIHkyPSI1ODQuMDE1NiIvPjxsaW5lIHN0eWxlPSJzdHJva2U6IzAwMDAwMDtzdHJva2Utd2lkdGg6MS41OyIgeDE9IjYyNSIgeDI9IjYyNSIgeTE9IjExIiB5Mj0iNTg0LjAxNTYiLz48bGluZSBzdHlsZT0ic3Ryb2tlOiMxODE4MTg7c3Ryb2tlLXdpZHRoOjE7IiB4MT0iMTAzIiB4Mj0iMTAzIiB5MT0iNTUuMjY1NiIgeTI9Ijc1LjI2NTYiLz48cG9seWdvbiBmaWxsPSIjMTgxODE4IiBwb2ludHM9Ijk5LDY1LjI2NTYsMTAzLDc1LjI2NTYsMTA3LDY1LjI2NTYsMTAzLDY5LjI2NTYiIHN0eWxlPSJzdHJva2U6IzE4MTgxODtzdHJva2Utd2lkdGg6MTsiLz48bGluZSBzdHlsZT0ic3Ryb2tlOiMxODE4MTg7c3Ryb2tlLXdpZHRoOjE7IiB4MT0iMTAzIiB4Mj0iMTAzIiB5MT0iMTA4LjEwOTQiIHkyPSIxMjguMTA5NCIvPjxwb2x5Z29uIGZpbGw9IiMxODE4MTgiIHBvaW50cz0iOTksMTE4LjEwOTQsMTAzLDEyOC4xMDk0LDEwNywxMTguMTA5NCwxMDMsMTIyLjEwOTQiIHN0eWxlPSJzdHJva2U6IzE4MTgxODtzdHJva2Utd2lkdGg6MTsiLz48bGluZSBzdHlsZT0ic3Ryb2tlOiMxODE4MTg7c3Ryb2tlLXdpZHRoOjE7IiB4MT0iMTAzIiB4Mj0iMTAzIiB5MT0iMTYwLjk1MzEiIHkyPSIxODAuOTUzMSIvPjxwb2x5Z29uIGZpbGw9IiMxODE4MTgiIHBvaW50cz0iOTksMTcwLjk1MzEsMTAzLDE4MC45NTMxLDEwNywxNzAuOTUzMSwxMDMsMTc0Ljk1MzEiIHN0eWxlPSJzdHJva2U6IzE4MTgxODtzdHJva2Utd2lkdGg6MTsiLz48bGluZSBzdHlsZT0ic3Ryb2tlOiMxODE4MTg7c3Ryb2tlLXdpZHRoOjE7IiB4MT0iMTAzIiB4Mj0iMTAzIiB5MT0iNTQyLjAxNTYiIHkyPSI1NjIuMDE1NiIvPjxwb2x5Z29uIGZpbGw9IiMxODE4MTgiIHBvaW50cz0iOTksNTUyLjAxNTYsMTAzLDU2Mi4wMTU2LDEwNyw1NTIuMDE1NiwxMDMsNTU2LjAxNTYiIHN0eWxlPSJzdHJva2U6IzE4MTgxODtzdHJva2Utd2lkdGg6MTsiLz48bGluZSBzdHlsZT0ic3Ryb2tlOiMxODE4MTg7c3Ryb2tlLXdpZHRoOjE7IiB4MT0iMjkyIiB4Mj0iMjkyIiB5MT0iMzUzLjQ4NDQiIHkyPSIzNzMuNDg0NCIvPjxwb2x5Z29uIGZpbGw9IiMxODE4MTgiIHBvaW50cz0iMjg4LDM2My40ODQ0LDI5MiwzNzMuNDg0NCwyOTYsMzYzLjQ4NDQsMjkyLDM2Ny40ODQ0IiBzdHlsZT0ic3Ryb2tlOiMxODE4MTg7c3Ryb2tlLXdpZHRoOjE7Ii8+PGxpbmUgc3R5bGU9InN0cm9rZTojMTgxODE4O3N0cm9rZS13aWR0aDoxOyIgeDE9IjI5MiIgeDI9IjI5MiIgeTE9IjQwNi4zMjgxIiB5Mj0iNDI2LjMyODEiLz48cG9seWdvbiBmaWxsPSIjMTgxODE4IiBwb2ludHM9IjI4OCw0MTYuMzI4MSwyOTIsNDI2LjMyODEsMjk2LDQxNi4zMjgxLDI5Miw0MjAuMzI4MSIgc3R5bGU9InN0cm9rZTojMTgxODE4O3N0cm9rZS13aWR0aDoxOyIvPjxsaW5lIHN0eWxlPSJzdHJva2U6IzE4MTgxODtzdHJva2Utd2lkdGg6MTsiIHgxPSIzNDIiIHgyPSIyOTIiIHkxPSIyOTguNjQwNiIgeTI9IjI5OC42NDA2Ii8+PGxpbmUgc3R5bGU9InN0cm9rZTojMTgxODE4O3N0cm9rZS13aWR0aDoxOyIgeDE9IjI5MiIgeDI9IjI5MiIgeTE9IjI5OC42NDA2IiB5Mj0iMzIwLjY0MDYiLz48cG9seWdvbiBmaWxsPSIjMTgxODE4IiBwb2ludHM9IjI4OCwzMTAuNjQwNiwyOTIsMzIwLjY0MDYsMjk2LDMxMC42NDA2LDI5MiwzMTQuNjQwNiIgc3R5bGU9InN0cm9rZTojMTgxODE4O3N0cm9rZS13aWR0aDoxOyIvPjxsaW5lIHN0eWxlPSJzdHJva2U6IzE4MTgxODtzdHJva2Utd2lkdGg6MTsiIHgxPSI0NjUiIHgyPSI1MTUiIHkxPSIyOTguNjQwNiIgeTI9IjI5OC42NDA2Ii8+PGxpbmUgc3R5bGU9InN0cm9rZTojMTgxODE4O3N0cm9rZS13aWR0aDoxOyIgeDE9IjUxNSIgeDI9IjUxNSIgeTE9IjI5OC42NDA2IiB5Mj0iMzIwLjY0MDYiLz48cG9seWdvbiBmaWxsPSIjMTgxODE4IiBwb2ludHM9IjUxMSwzMTAuNjQwNiw1MTUsMzIwLjY0MDYsNTE5LDMxMC42NDA2LDUxNSwzMTQuNjQwNiIgc3R5bGU9InN0cm9rZTojMTgxODE4O3N0cm9rZS13aWR0aDoxOyIvPjxsaW5lIHN0eWxlPSJzdHJva2U6IzE4MTgxODtzdHJva2Utd2lkdGg6MTsiIHgxPSIyOTIiIHgyPSIyOTIiIHkxPSI0NTkuMTcxOSIgeTI9IjQ3Ny4xNzE5Ii8+PGxpbmUgc3R5bGU9InN0cm9rZTojMTgxODE4O3N0cm9rZS13aWR0aDoxOyIgeDE9IjI5MiIgeDI9IjM5MS41IiB5MT0iNDc3LjE3MTkiIHkyPSI0NzcuMTcxOSIvPjxwb2x5Z29uIGZpbGw9IiMxODE4MTgiIHBvaW50cz0iMzgxLjUsNDczLjE3MTksMzkxLjUsNDc3LjE3MTksMzgxLjUsNDgxLjE3MTksMzg1LjUsNDc3LjE3MTkiIHN0eWxlPSJzdHJva2U6IzE4MTgxODtzdHJva2Utd2lkdGg6MTsiLz48bGluZSBzdHlsZT0ic3Ryb2tlOiMxODE4MTg7c3Ryb2tlLXdpZHRoOjE7IiB4MT0iNTE1IiB4Mj0iNTE1IiB5MT0iMzUzLjQ4NDQiIHkyPSI0NzcuMTcxOSIvPjxsaW5lIHN0eWxlPSJzdHJva2U6IzE4MTgxODtzdHJva2Utd2lkdGg6MTsiIHgxPSI1MTUiIHgyPSI0MTUuNSIgeTE9IjQ3Ny4xNzE5IiB5Mj0iNDc3LjE3MTkiLz48cG9seWdvbiBmaWxsPSIjMTgxODE4IiBwb2ludHM9IjQyNS41LDQ3My4xNzE5LDQxNS41LDQ3Ny4xNzE5LDQyNS41LDQ4MS4xNzE5LDQyMS41LDQ3Ny4xNzE5IiBzdHlsZT0ic3Ryb2tlOiMxODE4MTg7c3Ryb2tlLXdpZHRoOjE7Ii8+PGxpbmUgc3R5bGU9InN0cm9rZTojMTgxODE4O3N0cm9rZS13aWR0aDoxOyIgeDE9IjQwMy41IiB4Mj0iNDAzLjUiIHkxPSIyNjYuNjQwNiIgeTI9IjI4Ni42NDA2Ii8+PHBvbHlnb24gZmlsbD0iIzE4MTgxOCIgcG9pbnRzPSIzOTkuNSwyNzYuNjQwNiw0MDMuNSwyODYuNjQwNiw0MDcuNSwyNzYuNjQwNiw0MDMuNSwyODAuNjQwNiIgc3R5bGU9InN0cm9rZTojMTgxODE4O3N0cm9rZS13aWR0aDoxOyIvPjxsaW5lIHN0eWxlPSJzdHJva2U6IzE4MTgxODtzdHJva2Utd2lkdGg6MTsiIHgxPSIxMDMiIHgyPSIxMDMiIHkxPSIyMTMuNzk2OSIgeTI9IjIxOC43OTY5Ii8+PGxpbmUgc3R5bGU9InN0cm9rZTojMTgxODE4O3N0cm9rZS13aWR0aDoxOyIgeDE9IjEwMyIgeDI9IjQwMy41IiB5MT0iMjE4Ljc5NjkiIHkyPSIyMTguNzk2OSIvPjxsaW5lIHN0eWxlPSJzdHJva2U6IzE4MTgxODtzdHJva2Utd2lkdGg6MTsiIHgxPSI0MDMuNSIgeDI9IjQwMy41IiB5MT0iMjE4Ljc5NjkiIHkyPSIyMzMuNzk2OSIvPjxwb2x5Z29uIGZpbGw9IiMxODE4MTgiIHBvaW50cz0iMzk5LjUsMjIzLjc5NjksNDAzLjUsMjMzLjc5NjksNDA3LjUsMjIzLjc5NjksNDAzLjUsMjI3Ljc5NjkiIHN0eWxlPSJzdHJva2U6IzE4MTgxODtzdHJva2Utd2lkdGg6MTsiLz48bGluZSBzdHlsZT0ic3Ryb2tlOiMxODE4MTg7c3Ryb2tlLXdpZHRoOjE7IiB4MT0iNDAzLjUiIHgyPSI0MDMuNSIgeTE9IjQ4OS4xNzE5IiB5Mj0iNDk0LjE3MTkiLz48bGluZSBzdHlsZT0ic3Ryb2tlOiMxODE4MTg7c3Ryb2tlLXdpZHRoOjE7IiB4MT0iNDAzLjUiIHgyPSIxMDMiIHkxPSI0OTQuMTcxOSIgeTI9IjQ5NC4xNzE5Ii8+PGxpbmUgc3R5bGU9InN0cm9rZTojMTgxODE4O3N0cm9rZS13aWR0aDoxOyIgeDE9IjEwMyIgeDI9IjEwMyIgeTE9IjQ5NC4xNzE5IiB5Mj0iNTA5LjE3MTkiLz48cG9seWdvbiBmaWxsPSIjMTgxODE4IiBwb2ludHM9Ijk5LDQ5OS4xNzE5LDEwMyw1MDkuMTcxOSwxMDcsNDk5LjE3MTksMTAzLDUwMy4xNzE5IiBzdHlsZT0ic3Ryb2tlOiMxODE4MTg7c3Ryb2tlLXdpZHRoOjE7Ii8+PHRleHQgZmlsbD0iIzAwMDAwMCIgZm9udC1mYW1pbHk9InNhbnMtc2VyaWYiIGZvbnQtc2l6ZT0iMTgiIGxlbmd0aEFkanVzdD0ic3BhY2luZyIgdGV4dExlbmd0aD0iNDUiIHg9Ijc5LjUiIHk9IjI4LjAxNTYiPkd1ZXN0PC90ZXh0Pjx0ZXh0IGZpbGw9IiMwMDAwMDAiIGZvbnQtZmFtaWx5PSJzYW5zLXNlcmlmIiBmb250LXNpemU9IjE4IiBsZW5ndGhBZGp1c3Q9InNwYWNpbmciIHRleHRMZW5ndGg9IjU0IiB4PSIzODAiIHk9IjI4LjAxNTYiPlN5c3RlbTwvdGV4dD48IS0tU1JDPVtMUDJuSVdEMTU0TngtT2hCTGZqVnMyYWlLWVc4UU04SG9uV2RFdWtQRHFqYzU4SmpCNEthLTBDOVl1TDJHQ0hnZngwT3lKX2NKdm5ETDJSVHlFdnp4dnd2cFY2ckNCUFhuYXdOYlhMMzZUbTNtT0lrOVRHb1QyLUE5ckV0bWtCeEJSWU1vWldVSFZzUGE5cjlfd2ZtdXpTUVBITlM4d0hWS3Zibm5maG5oUjUyRFFtdVpTQVRXYnJFT09EeDhibjlwTGFySHB2RWlaM3B4eEhWRm5oMElhNzhwdUtQQ0EzT2Z3SGFJSUpsN1NGR1JNakdyQlJzNEJQdEhnRlZ4N21kRkdsNXl5N1RmeUp1TWxhTWktR0FQczlYMUZBSF9hRnVZQk9CbHo3ODNoWHRjXzd2UVZ5X0ItWW9jaVNBVldpazlhQWJPSm5NaGtpVl0tLT48L2c+PC9zdmc+;" vertex="1" parent="1">
            <mxGeometry x="102" y="-1000" width="646" height="596" as="geometry" />
          </mxCell>
        </UserObject>
        <UserObject label="" plantUmlData="{&#xa;  &quot;data&quot;: &quot;@startuml\n|Admin|\nstart\n:Đăng nhập hệ thống;\n:Chọn thêm sản phẩm;\n\n|System|\n:Hiển thị form nhập sản phẩm;\n:Nhập thông tin sản phẩm (Tên, loại, giá, NCC...);\n:Kiểm tra thông tin hợp lệ;\nif (Thông tin hợp lệ?) then (Yes)\n  :Lưu sản phẩm mới vào DB;\n  :Thông báo \&quot;Thêm thành công\&quot;;\nelse (No)\n  :Thông báo lỗi và yêu cầu nhập lại;\nendif\nstop\n@enduml\n&quot;,&#xa;  &quot;format&quot;: &quot;svg&quot;&#xa;}" id="o4Ry2LVALnNqbZM6HUpt-2">
          <mxCell style="shape=image;noLabel=1;verticalAlign=top;aspect=fixed;imageAspect=0;image=data:image/svg+xml,PHN2ZyB4bWxucz0iaHR0cDovL3d3dy53My5vcmcvMjAwMC9zdmciIHhtbG5zOnhsaW5rPSJodHRwOi8vd3d3LnczLm9yZy8xOTk5L3hsaW5rIiBjb250ZW50U3R5bGVUeXBlPSJ0ZXh0L2NzcyIgZGF0YS1kaWFncmFtLXR5cGU9IkFDVElWSVRZIiBoZWlnaHQ9IjU0M3B4IiBwcmVzZXJ2ZUFzcGVjdFJhdGlvPSJub25lIiBzdHlsZT0id2lkdGg6NjA0cHg7aGVpZ2h0OjU0M3B4O2JhY2tncm91bmQ6I0ZGRkZGRjsiIHZlcnNpb249IjEuMSIgdmlld0JveD0iMCAwIDYwNCA1NDMiIHdpZHRoPSI2MDRweCIgem9vbUFuZFBhbj0ibWFnbmlmeSI+PGRlZnMvPjxnPjxyZWN0IGZpbGw9Im5vbmUiIGhlaWdodD0iMTkuMjY1NiIgc3R5bGU9InN0cm9rZTpub25lO3N0cm9rZS13aWR0aDoxOyIgd2lkdGg9IjU3MS41IiB4PSIxNSIgeT0iMTEiLz48ZWxsaXBzZSBjeD0iODUiIGN5PSI0NS4yNjU2IiBmaWxsPSIjMjIyMjIyIiByeD0iMTAiIHJ5PSIxMCIgc3R5bGU9InN0cm9rZTojMjIyMjIyO3N0cm9rZS13aWR0aDoxOyIvPjxyZWN0IGZpbGw9IiNGMUYxRjEiIGhlaWdodD0iMzIuODQzOCIgcng9IjEyLjUiIHJ5PSIxMi41IiBzdHlsZT0ic3Ryb2tlOiMxODE4MTg7c3Ryb2tlLXdpZHRoOjAuNTsiIHdpZHRoPSIxMjgiIHg9IjIxIiB5PSI3NS4yNjU2Ii8+PHRleHQgZmlsbD0iIzAwMDAwMCIgZm9udC1mYW1pbHk9InNhbnMtc2VyaWYiIGZvbnQtc2l6ZT0iMTIiIGxlbmd0aEFkanVzdD0ic3BhY2luZyIgdGV4dExlbmd0aD0iMTA4IiB4PSIzMSIgeT0iOTYuNjA5NCI+JiMyNzI7JiMyNTk7bmcgbmgmIzc4NTM7cCBoJiM3ODc5OyB0aCYjNzg4OTtuZzwvdGV4dD48cmVjdCBmaWxsPSIjRjFGMUYxIiBoZWlnaHQ9IjMyLjg0MzgiIHJ4PSIxMi41IiByeT0iMTIuNSIgc3R5bGU9InN0cm9rZTojMTgxODE4O3N0cm9rZS13aWR0aDowLjU7IiB3aWR0aD0iMTI4IiB4PSIyMSIgeT0iMTI4LjEwOTQiLz48dGV4dCBmaWxsPSIjMDAwMDAwIiBmb250LWZhbWlseT0ic2Fucy1zZXJpZiIgZm9udC1zaXplPSIxMiIgbGVuZ3RoQWRqdXN0PSJzcGFjaW5nIiB0ZXh0TGVuZ3RoPSIxMDgiIHg9IjMxIiB5PSIxNDkuNDUzMSI+Q2gmIzc4ODU7biB0aCYjMjM0O20gcyYjNzg0MztuIHBoJiM3ODQ5O208L3RleHQ+PGxpbmUgc3R5bGU9InN0cm9rZTojMDAwMDAwO3N0cm9rZS13aWR0aDoxLjU7IiB4MT0iMTUiIHgyPSIxNSIgeTE9IjExIiB5Mj0iNTMxLjE3MTkiLz48cmVjdCBmaWxsPSIjRjFGMUYxIiBoZWlnaHQ9IjMyLjg0MzgiIHJ4PSIxMi41IiByeT0iMTIuNSIgc3R5bGU9InN0cm9rZTojMTgxODE4O3N0cm9rZS13aWR0aDowLjU7IiB3aWR0aD0iMTgyIiB4PSIyNjkiIHk9IjE4MC45NTMxIi8+PHRleHQgZmlsbD0iIzAwMDAwMCIgZm9udC1mYW1pbHk9InNhbnMtc2VyaWYiIGZvbnQtc2l6ZT0iMTIiIGxlbmd0aEFkanVzdD0ic3BhY2luZyIgdGV4dExlbmd0aD0iMTYyIiB4PSIyNzkiIHk9IjIwMi4yOTY5Ij5IaSYjNzg3NTtuIHRoJiM3ODgzOyBmb3JtIG5oJiM3ODUzO3AgcyYjNzg0MztuIHBoJiM3ODQ5O208L3RleHQ+PHJlY3QgZmlsbD0iI0YxRjFGMSIgaGVpZ2h0PSIzMi44NDM4IiByeD0iMTIuNSIgcnk9IjEyLjUiIHN0eWxlPSJzdHJva2U6IzE4MTgxODtzdHJva2Utd2lkdGg6MC41OyIgd2lkdGg9IjMwOCIgeD0iMjA2IiB5PSIyMzMuNzk2OSIvPjx0ZXh0IGZpbGw9IiMwMDAwMDAiIGZvbnQtZmFtaWx5PSJzYW5zLXNlcmlmIiBmb250LXNpemU9IjEyIiBsZW5ndGhBZGp1c3Q9InNwYWNpbmciIHRleHRMZW5ndGg9IjI4OCIgeD0iMjE2IiB5PSIyNTUuMTQwNiI+TmgmIzc4NTM7cCB0aCYjMjQ0O25nIHRpbiBzJiM3ODQzO24gcGgmIzc4NDk7bSAoVCYjMjM0O24sIGxvJiM3ODQxO2ksIGdpJiMyMjU7LCBOQ0MuLi4pPC90ZXh0PjxyZWN0IGZpbGw9IiNGMUYxRjEiIGhlaWdodD0iMzIuODQzOCIgcng9IjEyLjUiIHJ5PSIxMi41IiBzdHlsZT0ic3Ryb2tlOiMxODE4MTg7c3Ryb2tlLXdpZHRoOjAuNTsiIHdpZHRoPSIxNzAiIHg9IjI3NSIgeT0iMjg2LjY0MDYiLz48dGV4dCBmaWxsPSIjMDAwMDAwIiBmb250LWZhbWlseT0ic2Fucy1zZXJpZiIgZm9udC1zaXplPSIxMiIgbGVuZ3RoQWRqdXN0PSJzcGFjaW5nIiB0ZXh0TGVuZ3RoPSIxNTAiIHg9IjI4NSIgeT0iMzA3Ljk4NDQiPktpJiM3ODc1O20gdHJhIHRoJiMyNDQ7bmcgdGluIGgmIzc5MDc7cCBsJiM3ODc5OzwvdGV4dD48cG9seWdvbiBmaWxsPSIjRjFGMUYxIiBwb2ludHM9IjMxMy4yNSwzMzkuNDg0NCw0MDYuNzUsMzM5LjQ4NDQsNDE4Ljc1LDM1MS40ODQ0LDQwNi43NSwzNjMuNDg0NCwzMTMuMjUsMzYzLjQ4NDQsMzAxLjI1LDM1MS40ODQ0LDMxMy4yNSwzMzkuNDg0NCIgc3R5bGU9InN0cm9rZTojMTgxODE4O3N0cm9rZS13aWR0aDowLjU7Ii8+PHRleHQgZmlsbD0iIzAwMDAwMCIgZm9udC1mYW1pbHk9InNhbnMtc2VyaWYiIGZvbnQtc2l6ZT0iMTEiIGxlbmd0aEFkanVzdD0ic3BhY2luZyIgdGV4dExlbmd0aD0iOTMuNSIgeD0iMzEzLjI1IiB5PSIzNTUuOTk2MSI+VGgmIzI0NDtuZyB0aW4gaCYjNzkwNztwIGwmIzc4Nzk7PzwvdGV4dD48dGV4dCBmaWxsPSIjMDAwMDAwIiBmb250LWZhbWlseT0ic2Fucy1zZXJpZiIgZm9udC1zaXplPSIxMSIgbGVuZ3RoQWRqdXN0PSJzcGFjaW5nIiB0ZXh0TGVuZ3RoPSIxNi41IiB4PSIyODQuNzUiIHk9IjM1MC4xMDk0Ij5ZZXM8L3RleHQ+PHRleHQgZmlsbD0iIzAwMDAwMCIgZm9udC1mYW1pbHk9InNhbnMtc2VyaWYiIGZvbnQtc2l6ZT0iMTEiIGxlbmd0aEFkanVzdD0ic3BhY2luZyIgdGV4dExlbmd0aD0iMTEiIHg9IjQxOC43NSIgeT0iMzUwLjEwOTQiPk5vPC90ZXh0PjxyZWN0IGZpbGw9IiNGMUYxRjEiIGhlaWdodD0iMzIuODQzOCIgcng9IjEyLjUiIHJ5PSIxMi41IiBzdHlsZT0ic3Ryb2tlOiMxODE4MTg7c3Ryb2tlLXdpZHRoOjAuNTsiIHdpZHRoPSIxNTgiIHg9IjE3MSIgeT0iMzczLjQ4NDQiLz48dGV4dCBmaWxsPSIjMDAwMDAwIiBmb250LWZhbWlseT0ic2Fucy1zZXJpZiIgZm9udC1zaXplPSIxMiIgbGVuZ3RoQWRqdXN0PSJzcGFjaW5nIiB0ZXh0TGVuZ3RoPSIxMzgiIHg9IjE4MSIgeT0iMzk0LjgyODEiPkwmIzQzMjt1IHMmIzc4NDM7biBwaCYjNzg0OTttIG0mIzc4OTk7aSB2JiMyMjQ7byBEQjwvdGV4dD48cmVjdCBmaWxsPSIjRjFGMUYxIiBoZWlnaHQ9IjMyLjg0MzgiIHJ4PSIxMi41IiByeT0iMTIuNSIgc3R5bGU9InN0cm9rZTojMTgxODE4O3N0cm9rZS13aWR0aDowLjU7IiB3aWR0aD0iMTgyIiB4PSIxNTkiIHk9IjQyNi4zMjgxIi8+PHRleHQgZmlsbD0iIzAwMDAwMCIgZm9udC1mYW1pbHk9InNhbnMtc2VyaWYiIGZvbnQtc2l6ZT0iMTIiIGxlbmd0aEFkanVzdD0ic3BhY2luZyIgdGV4dExlbmd0aD0iMTYyIiB4PSIxNjkiIHk9IjQ0Ny42NzE5Ij5UaCYjMjQ0O25nIGImIzIyNTtvICJUaCYjMjM0O20gdGgmIzIyNDtuaCBjJiMyNDQ7bmciPC90ZXh0PjxyZWN0IGZpbGw9IiNGMUYxRjEiIGhlaWdodD0iMzIuODQzOCIgcng9IjEyLjUiIHJ5PSIxMi41IiBzdHlsZT0ic3Ryb2tlOiMxODE4MTg7c3Ryb2tlLXdpZHRoOjAuNTsiIHdpZHRoPSIyMTgiIHg9IjM2MSIgeT0iMzczLjQ4NDQiLz48dGV4dCBmaWxsPSIjMDAwMDAwIiBmb250LWZhbWlseT0ic2Fucy1zZXJpZiIgZm9udC1zaXplPSIxMiIgbGVuZ3RoQWRqdXN0PSJzcGFjaW5nIiB0ZXh0TGVuZ3RoPSIxOTgiIHg9IjM3MSIgeT0iMzk0LjgyODEiPlRoJiMyNDQ7bmcgYiYjMjI1O28gbCYjNzg5NTtpIHYmIzIyNDsgeSYjMjM0O3UgYyYjNzg0Nzt1IG5oJiM3ODUzO3AgbCYjNzg0MTtpPC90ZXh0Pjxwb2x5Z29uIGZpbGw9IiNGMUYxRjEiIHBvaW50cz0iMzYwLDQ2NS4xNzE5LDM3Miw0NzcuMTcxOSwzNjAsNDg5LjE3MTksMzQ4LDQ3Ny4xNzE5LDM2MCw0NjUuMTcxOSIgc3R5bGU9InN0cm9rZTojMTgxODE4O3N0cm9rZS13aWR0aDowLjU7Ii8+PGVsbGlwc2UgY3g9IjM2MCIgY3k9IjUyMC4xNzE5IiBmaWxsPSJub25lIiByeD0iMTEiIHJ5PSIxMSIgc3R5bGU9InN0cm9rZTojMjIyMjIyO3N0cm9rZS13aWR0aDoxOyIvPjxlbGxpcHNlIGN4PSIzNjAiIGN5PSI1MjAuMTcxOSIgZmlsbD0iIzIyMjIyMiIgcng9IjYiIHJ5PSI2IiBzdHlsZT0ic3Ryb2tlOiMyMjIyMjI7c3Ryb2tlLXdpZHRoOjE7Ii8+PGxpbmUgc3R5bGU9InN0cm9rZTojMDAwMDAwO3N0cm9rZS13aWR0aDoxLjU7IiB4MT0iMTUzIiB4Mj0iMTUzIiB5MT0iMTEiIHkyPSI1MzEuMTcxOSIvPjxsaW5lIHN0eWxlPSJzdHJva2U6IzAwMDAwMDtzdHJva2Utd2lkdGg6MS41OyIgeDE9IjU4MyIgeDI9IjU4MyIgeTE9IjExIiB5Mj0iNTMxLjE3MTkiLz48bGluZSBzdHlsZT0ic3Ryb2tlOiMxODE4MTg7c3Ryb2tlLXdpZHRoOjE7IiB4MT0iODUiIHgyPSI4NSIgeTE9IjU1LjI2NTYiIHkyPSI3NS4yNjU2Ii8+PHBvbHlnb24gZmlsbD0iIzE4MTgxOCIgcG9pbnRzPSI4MSw2NS4yNjU2LDg1LDc1LjI2NTYsODksNjUuMjY1Niw4NSw2OS4yNjU2IiBzdHlsZT0ic3Ryb2tlOiMxODE4MTg7c3Ryb2tlLXdpZHRoOjE7Ii8+PGxpbmUgc3R5bGU9InN0cm9rZTojMTgxODE4O3N0cm9rZS13aWR0aDoxOyIgeDE9Ijg1IiB4Mj0iODUiIHkxPSIxMDguMTA5NCIgeTI9IjEyOC4xMDk0Ii8+PHBvbHlnb24gZmlsbD0iIzE4MTgxOCIgcG9pbnRzPSI4MSwxMTguMTA5NCw4NSwxMjguMTA5NCw4OSwxMTguMTA5NCw4NSwxMjIuMTA5NCIgc3R5bGU9InN0cm9rZTojMTgxODE4O3N0cm9rZS13aWR0aDoxOyIvPjxsaW5lIHN0eWxlPSJzdHJva2U6IzE4MTgxODtzdHJva2Utd2lkdGg6MTsiIHgxPSIzNjAiIHgyPSIzNjAiIHkxPSIyMTMuNzk2OSIgeTI9IjIzMy43OTY5Ii8+PHBvbHlnb24gZmlsbD0iIzE4MTgxOCIgcG9pbnRzPSIzNTYsMjIzLjc5NjksMzYwLDIzMy43OTY5LDM2NCwyMjMuNzk2OSwzNjAsMjI3Ljc5NjkiIHN0eWxlPSJzdHJva2U6IzE4MTgxODtzdHJva2Utd2lkdGg6MTsiLz48bGluZSBzdHlsZT0ic3Ryb2tlOiMxODE4MTg7c3Ryb2tlLXdpZHRoOjE7IiB4MT0iMzYwIiB4Mj0iMzYwIiB5MT0iMjY2LjY0MDYiIHkyPSIyODYuNjQwNiIvPjxwb2x5Z29uIGZpbGw9IiMxODE4MTgiIHBvaW50cz0iMzU2LDI3Ni42NDA2LDM2MCwyODYuNjQwNiwzNjQsMjc2LjY0MDYsMzYwLDI4MC42NDA2IiBzdHlsZT0ic3Ryb2tlOiMxODE4MTg7c3Ryb2tlLXdpZHRoOjE7Ii8+PGxpbmUgc3R5bGU9InN0cm9rZTojMTgxODE4O3N0cm9rZS13aWR0aDoxOyIgeDE9IjI1MCIgeDI9IjI1MCIgeTE9IjQwNi4zMjgxIiB5Mj0iNDI2LjMyODEiLz48cG9seWdvbiBmaWxsPSIjMTgxODE4IiBwb2ludHM9IjI0Niw0MTYuMzI4MSwyNTAsNDI2LjMyODEsMjU0LDQxNi4zMjgxLDI1MCw0MjAuMzI4MSIgc3R5bGU9InN0cm9rZTojMTgxODE4O3N0cm9rZS13aWR0aDoxOyIvPjxsaW5lIHN0eWxlPSJzdHJva2U6IzE4MTgxODtzdHJva2Utd2lkdGg6MTsiIHgxPSIzMDEuMjUiIHgyPSIyNTAiIHkxPSIzNTEuNDg0NCIgeTI9IjM1MS40ODQ0Ii8+PGxpbmUgc3R5bGU9InN0cm9rZTojMTgxODE4O3N0cm9rZS13aWR0aDoxOyIgeDE9IjI1MCIgeDI9IjI1MCIgeTE9IjM1MS40ODQ0IiB5Mj0iMzczLjQ4NDQiLz48cG9seWdvbiBmaWxsPSIjMTgxODE4IiBwb2ludHM9IjI0NiwzNjMuNDg0NCwyNTAsMzczLjQ4NDQsMjU0LDM2My40ODQ0LDI1MCwzNjcuNDg0NCIgc3R5bGU9InN0cm9rZTojMTgxODE4O3N0cm9rZS13aWR0aDoxOyIvPjxsaW5lIHN0eWxlPSJzdHJva2U6IzE4MTgxODtzdHJva2Utd2lkdGg6MTsiIHgxPSI0MTguNzUiIHgyPSI0NzAiIHkxPSIzNTEuNDg0NCIgeTI9IjM1MS40ODQ0Ii8+PGxpbmUgc3R5bGU9InN0cm9rZTojMTgxODE4O3N0cm9rZS13aWR0aDoxOyIgeDE9IjQ3MCIgeDI9IjQ3MCIgeTE9IjM1MS40ODQ0IiB5Mj0iMzczLjQ4NDQiLz48cG9seWdvbiBmaWxsPSIjMTgxODE4IiBwb2ludHM9IjQ2NiwzNjMuNDg0NCw0NzAsMzczLjQ4NDQsNDc0LDM2My40ODQ0LDQ3MCwzNjcuNDg0NCIgc3R5bGU9InN0cm9rZTojMTgxODE4O3N0cm9rZS13aWR0aDoxOyIvPjxsaW5lIHN0eWxlPSJzdHJva2U6IzE4MTgxODtzdHJva2Utd2lkdGg6MTsiIHgxPSIyNTAiIHgyPSIyNTAiIHkxPSI0NTkuMTcxOSIgeTI9IjQ3Ny4xNzE5Ii8+PGxpbmUgc3R5bGU9InN0cm9rZTojMTgxODE4O3N0cm9rZS13aWR0aDoxOyIgeDE9IjI1MCIgeDI9IjM0OCIgeTE9IjQ3Ny4xNzE5IiB5Mj0iNDc3LjE3MTkiLz48cG9seWdvbiBmaWxsPSIjMTgxODE4IiBwb2ludHM9IjMzOCw0NzMuMTcxOSwzNDgsNDc3LjE3MTksMzM4LDQ4MS4xNzE5LDM0Miw0NzcuMTcxOSIgc3R5bGU9InN0cm9rZTojMTgxODE4O3N0cm9rZS13aWR0aDoxOyIvPjxsaW5lIHN0eWxlPSJzdHJva2U6IzE4MTgxODtzdHJva2Utd2lkdGg6MTsiIHgxPSI0NzAiIHgyPSI0NzAiIHkxPSI0MDYuMzI4MSIgeTI9IjQ3Ny4xNzE5Ii8+PGxpbmUgc3R5bGU9InN0cm9rZTojMTgxODE4O3N0cm9rZS13aWR0aDoxOyIgeDE9IjQ3MCIgeDI9IjM3MiIgeTE9IjQ3Ny4xNzE5IiB5Mj0iNDc3LjE3MTkiLz48cG9seWdvbiBmaWxsPSIjMTgxODE4IiBwb2ludHM9IjM4Miw0NzMuMTcxOSwzNzIsNDc3LjE3MTksMzgyLDQ4MS4xNzE5LDM3OCw0NzcuMTcxOSIgc3R5bGU9InN0cm9rZTojMTgxODE4O3N0cm9rZS13aWR0aDoxOyIvPjxsaW5lIHN0eWxlPSJzdHJva2U6IzE4MTgxODtzdHJva2Utd2lkdGg6MTsiIHgxPSIzNjAiIHgyPSIzNjAiIHkxPSIzMTkuNDg0NCIgeTI9IjMzOS40ODQ0Ii8+PHBvbHlnb24gZmlsbD0iIzE4MTgxOCIgcG9pbnRzPSIzNTYsMzI5LjQ4NDQsMzYwLDMzOS40ODQ0LDM2NCwzMjkuNDg0NCwzNjAsMzMzLjQ4NDQiIHN0eWxlPSJzdHJva2U6IzE4MTgxODtzdHJva2Utd2lkdGg6MTsiLz48bGluZSBzdHlsZT0ic3Ryb2tlOiMxODE4MTg7c3Ryb2tlLXdpZHRoOjE7IiB4MT0iMzYwIiB4Mj0iMzYwIiB5MT0iNDg5LjE3MTkiIHkyPSI1MDkuMTcxOSIvPjxwb2x5Z29uIGZpbGw9IiMxODE4MTgiIHBvaW50cz0iMzU2LDQ5OS4xNzE5LDM2MCw1MDkuMTcxOSwzNjQsNDk5LjE3MTksMzYwLDUwMy4xNzE5IiBzdHlsZT0ic3Ryb2tlOiMxODE4MTg7c3Ryb2tlLXdpZHRoOjE7Ii8+PGxpbmUgc3R5bGU9InN0cm9rZTojMTgxODE4O3N0cm9rZS13aWR0aDoxOyIgeDE9Ijg1IiB4Mj0iODUiIHkxPSIxNjAuOTUzMSIgeTI9IjE2NS45NTMxIi8+PGxpbmUgc3R5bGU9InN0cm9rZTojMTgxODE4O3N0cm9rZS13aWR0aDoxOyIgeDE9Ijg1IiB4Mj0iMzYwIiB5MT0iMTY1Ljk1MzEiIHkyPSIxNjUuOTUzMSIvPjxsaW5lIHN0eWxlPSJzdHJva2U6IzE4MTgxODtzdHJva2Utd2lkdGg6MTsiIHgxPSIzNjAiIHgyPSIzNjAiIHkxPSIxNjUuOTUzMSIgeTI9IjE4MC45NTMxIi8+PHBvbHlnb24gZmlsbD0iIzE4MTgxOCIgcG9pbnRzPSIzNTYsMTcwLjk1MzEsMzYwLDE4MC45NTMxLDM2NCwxNzAuOTUzMSwzNjAsMTc0Ljk1MzEiIHN0eWxlPSJzdHJva2U6IzE4MTgxODtzdHJva2Utd2lkdGg6MTsiLz48dGV4dCBmaWxsPSIjMDAwMDAwIiBmb250LWZhbWlseT0ic2Fucy1zZXJpZiIgZm9udC1zaXplPSIxOCIgbGVuZ3RoQWRqdXN0PSJzcGFjaW5nIiB0ZXh0TGVuZ3RoPSI0NSIgeD0iNjEuNSIgeT0iMjguMDE1NiI+QWRtaW48L3RleHQ+PHRleHQgZmlsbD0iIzAwMDAwMCIgZm9udC1mYW1pbHk9InNhbnMtc2VyaWYiIGZvbnQtc2l6ZT0iMTgiIGxlbmd0aEFkanVzdD0ic3BhY2luZyIgdGV4dExlbmd0aD0iNTQiIHg9IjM0MSIgeT0iMjguMDE1NiI+U3lzdGVtPC90ZXh0PjwhLS1TUkM9W1JQNl9JaUgwNENSeFZPaFhnV0gyN1kwZkg2Q1hBNmN5bmxBeW92LTV4Nm44RGk5MWtZaWlIRDNBbWtSMjVNOTBpQjFBb1pyeVp0cUo5ejQzOHBSQkNsRHpsc3pzalp2VTJPdXJBek1ZS0NwUkYtbXRjMDJjZmRsQjhKTnpCSVd3N3A3bmNIVkd4SHdmZTVpMWZVYnMyM2E5TnVORk03c3ZCYkthUWtRVFNURGxTQkpUR0ltQlNRMUQ3THh1TklOUTFvS2daWEMxTTdGVGVXRVBENXQzN0tZdVJYbThXeTFyTlBsU3ZxRUEwNUtpVlhDZVN2VDNIY0Z4WkNWNC1BenJQOUNiR2gya2VqOWMwRHg1dnRpcjNIVWNWLVBtZXhTSUphX3lHVkQza2pRRFhEYnl0MDNiUlo2NXZUMk8tSXBBb1dZaUtEZl92UEp2REM5V2hUaUFiZ1B4Z0d1eG9PUk5hSFRORkFPX2FGYU5dLS0+PC9nPjwvc3ZnPg==;" vertex="1" parent="1">
            <mxGeometry x="1010" y="-1010" width="604" height="543" as="geometry" />
          </mxCell>
        </UserObject>
        <UserObject label="" plantUmlData="{&#xa;  &quot;data&quot;: &quot;@startuml\n|Guest|\nstart\n:Chọn sản phẩm;\n:Chọn số lượng;\n:Nhấn \&quot;Thêm vào giỏ hàng\&quot;;\n\n|System|\n:Kiểm tra tồn kho;\nif (Còn hàng?) then (Yes)\n  :Thêm sản phẩm vào giỏ;\n  :Cập nhật số lượng &amp; giá;\n  :Hiển thị giỏ hàng đã cập nhật;\nelse (No)\n  :Thông báo \&quot;Hết hàng\&quot;;\nendif\n\n|Guest|\n:Xem giỏ hàng;\nstop\n@enduml\n&quot;,&#xa;  &quot;format&quot;: &quot;svg&quot;&#xa;}" id="o4Ry2LVALnNqbZM6HUpt-3">
          <mxCell style="shape=image;noLabel=1;verticalAlign=top;aspect=fixed;imageAspect=0;image=data:image/svg+xml,PHN2ZyB4bWxucz0iaHR0cDovL3d3dy53My5vcmcvMjAwMC9zdmciIHhtbG5zOnhsaW5rPSJodHRwOi8vd3d3LnczLm9yZy8xOTk5L3hsaW5rIiBjb250ZW50U3R5bGVUeXBlPSJ0ZXh0L2NzcyIgZGF0YS1kaWFncmFtLXR5cGU9IkFDVElWSVRZIiBoZWlnaHQ9IjU5NnB4IiBwcmVzZXJ2ZUFzcGVjdFJhdGlvPSJub25lIiBzdHlsZT0id2lkdGg6NTc0cHg7aGVpZ2h0OjU5NnB4O2JhY2tncm91bmQ6I0ZGRkZGRjsiIHZlcnNpb249IjEuMSIgdmlld0JveD0iMCAwIDU3NCA1OTYiIHdpZHRoPSI1NzRweCIgem9vbUFuZFBhbj0ibWFnbmlmeSI+PGRlZnMvPjxnPjxyZWN0IGZpbGw9Im5vbmUiIGhlaWdodD0iMTkuMjY1NiIgc3R5bGU9InN0cm9rZTpub25lO3N0cm9rZS13aWR0aDoxOyIgd2lkdGg9IjU0MS41IiB4PSIxNSIgeT0iMTEiLz48ZWxsaXBzZSBjeD0iMTAzIiBjeT0iNDUuMjY1NiIgZmlsbD0iIzIyMjIyMiIgcng9IjEwIiByeT0iMTAiIHN0eWxlPSJzdHJva2U6IzIyMjIyMjtzdHJva2Utd2lkdGg6MTsiLz48cmVjdCBmaWxsPSIjRjFGMUYxIiBoZWlnaHQ9IjMyLjg0MzgiIHJ4PSIxMi41IiByeT0iMTIuNSIgc3R5bGU9InN0cm9rZTojMTgxODE4O3N0cm9rZS13aWR0aDowLjU7IiB3aWR0aD0iOTgiIHg9IjU0IiB5PSI3NS4yNjU2Ii8+PHRleHQgZmlsbD0iIzAwMDAwMCIgZm9udC1mYW1pbHk9InNhbnMtc2VyaWYiIGZvbnQtc2l6ZT0iMTIiIGxlbmd0aEFkanVzdD0ic3BhY2luZyIgdGV4dExlbmd0aD0iNzgiIHg9IjY0IiB5PSI5Ni42MDk0Ij5DaCYjNzg4NTtuIHMmIzc4NDM7biBwaCYjNzg0OTttPC90ZXh0PjxyZWN0IGZpbGw9IiNGMUYxRjEiIGhlaWdodD0iMzIuODQzOCIgcng9IjEyLjUiIHJ5PSIxMi41IiBzdHlsZT0ic3Ryb2tlOiMxODE4MTg7c3Ryb2tlLXdpZHRoOjAuNTsiIHdpZHRoPSI5OCIgeD0iNTQiIHk9IjEyOC4xMDk0Ii8+PHRleHQgZmlsbD0iIzAwMDAwMCIgZm9udC1mYW1pbHk9InNhbnMtc2VyaWYiIGZvbnQtc2l6ZT0iMTIiIGxlbmd0aEFkanVzdD0ic3BhY2luZyIgdGV4dExlbmd0aD0iNzgiIHg9IjY0IiB5PSIxNDkuNDUzMSI+Q2gmIzc4ODU7biBzJiM3ODg5OyBsJiM0MzI7JiM3OTA3O25nPC90ZXh0PjxyZWN0IGZpbGw9IiNGMUYxRjEiIGhlaWdodD0iMzIuODQzOCIgcng9IjEyLjUiIHJ5PSIxMi41IiBzdHlsZT0ic3Ryb2tlOiMxODE4MTg7c3Ryb2tlLXdpZHRoOjAuNTsiIHdpZHRoPSIxNjQiIHg9IjIxIiB5PSIxODAuOTUzMSIvPjx0ZXh0IGZpbGw9IiMwMDAwMDAiIGZvbnQtZmFtaWx5PSJzYW5zLXNlcmlmIiBmb250LXNpemU9IjEyIiBsZW5ndGhBZGp1c3Q9InNwYWNpbmciIHRleHRMZW5ndGg9IjE0NCIgeD0iMzEiIHk9IjIwMi4yOTY5Ij5OaCYjNzg0NTtuICJUaCYjMjM0O20gdiYjMjI0O28gZ2kmIzc4ODc7IGgmIzIyNDtuZyI8L3RleHQ+PHJlY3QgZmlsbD0iI0YxRjFGMSIgaGVpZ2h0PSIzMi44NDM4IiByeD0iMTIuNSIgcnk9IjEyLjUiIHN0eWxlPSJzdHJva2U6IzE4MTgxODtzdHJva2Utd2lkdGg6MC41OyIgd2lkdGg9IjkyIiB4PSI1NyIgeT0iNTA5LjE3MTkiLz48dGV4dCBmaWxsPSIjMDAwMDAwIiBmb250LWZhbWlseT0ic2Fucy1zZXJpZiIgZm9udC1zaXplPSIxMiIgbGVuZ3RoQWRqdXN0PSJzcGFjaW5nIiB0ZXh0TGVuZ3RoPSI3MiIgeD0iNjciIHk9IjUzMC41MTU2Ij5YZW0gZ2kmIzc4ODc7IGgmIzIyNDtuZzwvdGV4dD48ZWxsaXBzZSBjeD0iMTAzIiBjeT0iNTczLjAxNTYiIGZpbGw9Im5vbmUiIHJ4PSIxMSIgcnk9IjExIiBzdHlsZT0ic3Ryb2tlOiMyMjIyMjI7c3Ryb2tlLXdpZHRoOjE7Ii8+PGVsbGlwc2UgY3g9IjEwMyIgY3k9IjU3My4wMTU2IiBmaWxsPSIjMjIyMjIyIiByeD0iNiIgcnk9IjYiIHN0eWxlPSJzdHJva2U6IzIyMjIyMjtzdHJva2Utd2lkdGg6MTsiLz48bGluZSBzdHlsZT0ic3Ryb2tlOiMwMDAwMDA7c3Ryb2tlLXdpZHRoOjEuNTsiIHgxPSIxNSIgeDI9IjE1IiB5MT0iMTEiIHkyPSI1ODQuMDE1NiIvPjxyZWN0IGZpbGw9IiNGMUYxRjEiIGhlaWdodD0iMzIuODQzOCIgcng9IjEyLjUiIHJ5PSIxMi41IiBzdHlsZT0ic3Ryb2tlOiMxODE4MTg7c3Ryb2tlLXdpZHRoOjAuNTsiIHdpZHRoPSIxMTYiIHg9IjMyNy41IiB5PSIyMzMuNzk2OSIvPjx0ZXh0IGZpbGw9IiMwMDAwMDAiIGZvbnQtZmFtaWx5PSJzYW5zLXNlcmlmIiBmb250LXNpemU9IjEyIiBsZW5ndGhBZGp1c3Q9InNwYWNpbmciIHRleHRMZW5ndGg9Ijk2IiB4PSIzMzcuNSIgeT0iMjU1LjE0MDYiPktpJiM3ODc1O20gdHJhIHQmIzc4OTE7biBraG88L3RleHQ+PHBvbHlnb24gZmlsbD0iI0YxRjFGMSIgcG9pbnRzPSIzNjAuNzUsMjg2LjY0MDYsNDEwLjI1LDI4Ni42NDA2LDQyMi4yNSwyOTguNjQwNiw0MTAuMjUsMzEwLjY0MDYsMzYwLjc1LDMxMC42NDA2LDM0OC43NSwyOTguNjQwNiwzNjAuNzUsMjg2LjY0MDYiIHN0eWxlPSJzdHJva2U6IzE4MTgxODtzdHJva2Utd2lkdGg6MC41OyIvPjx0ZXh0IGZpbGw9IiMwMDAwMDAiIGZvbnQtZmFtaWx5PSJzYW5zLXNlcmlmIiBmb250LXNpemU9IjExIiBsZW5ndGhBZGp1c3Q9InNwYWNpbmciIHRleHRMZW5ndGg9IjQ5LjUiIHg9IjM2MC43NSIgeT0iMzAzLjE1MjMiPkMmIzI0MjtuIGgmIzIyNDtuZz88L3RleHQ+PHRleHQgZmlsbD0iIzAwMDAwMCIgZm9udC1mYW1pbHk9InNhbnMtc2VyaWYiIGZvbnQtc2l6ZT0iMTEiIGxlbmd0aEFkanVzdD0ic3BhY2luZyIgdGV4dExlbmd0aD0iMTYuNSIgeD0iMzMyLjI1IiB5PSIyOTcuMjY1NiI+WWVzPC90ZXh0Pjx0ZXh0IGZpbGw9IiMwMDAwMDAiIGZvbnQtZmFtaWx5PSJzYW5zLXNlcmlmIiBmb250LXNpemU9IjExIiBsZW5ndGhBZGp1c3Q9InNwYWNpbmciIHRleHRMZW5ndGg9IjExIiB4PSI0MjIuMjUiIHk9IjI5Ny4yNjU2Ij5ObzwvdGV4dD48cmVjdCBmaWxsPSIjRjFGMUYxIiBoZWlnaHQ9IjMyLjg0MzgiIHJ4PSIxMi41IiByeT0iMTIuNSIgc3R5bGU9InN0cm9rZTojMTgxODE4O3N0cm9rZS13aWR0aDowLjU7IiB3aWR0aD0iMTQ2IiB4PSIyMTkiIHk9IjMyMC42NDA2Ii8+PHRleHQgZmlsbD0iIzAwMDAwMCIgZm9udC1mYW1pbHk9InNhbnMtc2VyaWYiIGZvbnQtc2l6ZT0iMTIiIGxlbmd0aEFkanVzdD0ic3BhY2luZyIgdGV4dExlbmd0aD0iMTI2IiB4PSIyMjkiIHk9IjM0MS45ODQ0Ij5UaCYjMjM0O20gcyYjNzg0MztuIHBoJiM3ODQ5O20gdiYjMjI0O28gZ2kmIzc4ODc7PC90ZXh0PjxyZWN0IGZpbGw9IiNGMUYxRjEiIGhlaWdodD0iMzIuODQzOCIgcng9IjEyLjUiIHJ5PSIxMi41IiBzdHlsZT0ic3Ryb2tlOiMxODE4MTg7c3Ryb2tlLXdpZHRoOjAuNTsiIHdpZHRoPSIxNTgiIHg9IjIxMyIgeT0iMzczLjQ4NDQiLz48dGV4dCBmaWxsPSIjMDAwMDAwIiBmb250LWZhbWlseT0ic2Fucy1zZXJpZiIgZm9udC1zaXplPSIxMiIgbGVuZ3RoQWRqdXN0PSJzcGFjaW5nIiB0ZXh0TGVuZ3RoPSIxMzgiIHg9IjIyMyIgeT0iMzk0LjgyODEiPkMmIzc4NTM7cCBuaCYjNzg1Mzt0IHMmIzc4ODk7IGwmIzQzMjsmIzc5MDc7bmcgJmFtcDsgZ2kmIzIyNTs8L3RleHQ+PHJlY3QgZmlsbD0iI0YxRjFGMSIgaGVpZ2h0PSIzMi44NDM4IiByeD0iMTIuNSIgcnk9IjEyLjUiIHN0eWxlPSJzdHJva2U6IzE4MTgxODtzdHJva2Utd2lkdGg6MC41OyIgd2lkdGg9IjE5NCIgeD0iMTk1IiB5PSI0MjYuMzI4MSIvPjx0ZXh0IGZpbGw9IiMwMDAwMDAiIGZvbnQtZmFtaWx5PSJzYW5zLXNlcmlmIiBmb250LXNpemU9IjEyIiBsZW5ndGhBZGp1c3Q9InNwYWNpbmciIHRleHRMZW5ndGg9IjE3NCIgeD0iMjA1IiB5PSI0NDcuNjcxOSI+SGkmIzc4NzU7biB0aCYjNzg4MzsgZ2kmIzc4ODc7IGgmIzIyNDtuZyAmIzI3MzsmIzIyNzsgYyYjNzg1MztwIG5oJiM3ODUzO3Q8L3RleHQ+PHJlY3QgZmlsbD0iI0YxRjFGMSIgaGVpZ2h0PSIzMi44NDM4IiByeD0iMTIuNSIgcnk9IjEyLjUiIHN0eWxlPSJzdHJva2U6IzE4MTgxODtzdHJva2Utd2lkdGg6MC41OyIgd2lkdGg9IjE0MCIgeD0iNDA5IiB5PSIzMjAuNjQwNiIvPjx0ZXh0IGZpbGw9IiMwMDAwMDAiIGZvbnQtZmFtaWx5PSJzYW5zLXNlcmlmIiBmb250LXNpemU9IjEyIiBsZW5ndGhBZGp1c3Q9InNwYWNpbmciIHRleHRMZW5ndGg9IjEyMCIgeD0iNDE5IiB5PSIzNDEuOTg0NCI+VGgmIzI0NDtuZyBiJiMyMjU7byAiSCYjNzg3MTt0IGgmIzIyNDtuZyI8L3RleHQ+PHBvbHlnb24gZmlsbD0iI0YxRjFGMSIgcG9pbnRzPSIzODUuNSw0NjUuMTcxOSwzOTcuNSw0NzcuMTcxOSwzODUuNSw0ODkuMTcxOSwzNzMuNSw0NzcuMTcxOSwzODUuNSw0NjUuMTcxOSIgc3R5bGU9InN0cm9rZTojMTgxODE4O3N0cm9rZS13aWR0aDowLjU7Ii8+PGxpbmUgc3R5bGU9InN0cm9rZTojMDAwMDAwO3N0cm9rZS13aWR0aDoxLjU7IiB4MT0iMTg5IiB4Mj0iMTg5IiB5MT0iMTEiIHkyPSI1ODQuMDE1NiIvPjxsaW5lIHN0eWxlPSJzdHJva2U6IzAwMDAwMDtzdHJva2Utd2lkdGg6MS41OyIgeDE9IjU1MyIgeDI9IjU1MyIgeTE9IjExIiB5Mj0iNTg0LjAxNTYiLz48bGluZSBzdHlsZT0ic3Ryb2tlOiMxODE4MTg7c3Ryb2tlLXdpZHRoOjE7IiB4MT0iMTAzIiB4Mj0iMTAzIiB5MT0iNTUuMjY1NiIgeTI9Ijc1LjI2NTYiLz48cG9seWdvbiBmaWxsPSIjMTgxODE4IiBwb2ludHM9Ijk5LDY1LjI2NTYsMTAzLDc1LjI2NTYsMTA3LDY1LjI2NTYsMTAzLDY5LjI2NTYiIHN0eWxlPSJzdHJva2U6IzE4MTgxODtzdHJva2Utd2lkdGg6MTsiLz48bGluZSBzdHlsZT0ic3Ryb2tlOiMxODE4MTg7c3Ryb2tlLXdpZHRoOjE7IiB4MT0iMTAzIiB4Mj0iMTAzIiB5MT0iMTA4LjEwOTQiIHkyPSIxMjguMTA5NCIvPjxwb2x5Z29uIGZpbGw9IiMxODE4MTgiIHBvaW50cz0iOTksMTE4LjEwOTQsMTAzLDEyOC4xMDk0LDEwNywxMTguMTA5NCwxMDMsMTIyLjEwOTQiIHN0eWxlPSJzdHJva2U6IzE4MTgxODtzdHJva2Utd2lkdGg6MTsiLz48bGluZSBzdHlsZT0ic3Ryb2tlOiMxODE4MTg7c3Ryb2tlLXdpZHRoOjE7IiB4MT0iMTAzIiB4Mj0iMTAzIiB5MT0iMTYwLjk1MzEiIHkyPSIxODAuOTUzMSIvPjxwb2x5Z29uIGZpbGw9IiMxODE4MTgiIHBvaW50cz0iOTksMTcwLjk1MzEsMTAzLDE4MC45NTMxLDEwNywxNzAuOTUzMSwxMDMsMTc0Ljk1MzEiIHN0eWxlPSJzdHJva2U6IzE4MTgxODtzdHJva2Utd2lkdGg6MTsiLz48bGluZSBzdHlsZT0ic3Ryb2tlOiMxODE4MTg7c3Ryb2tlLXdpZHRoOjE7IiB4MT0iMTAzIiB4Mj0iMTAzIiB5MT0iNTQyLjAxNTYiIHkyPSI1NjIuMDE1NiIvPjxwb2x5Z29uIGZpbGw9IiMxODE4MTgiIHBvaW50cz0iOTksNTUyLjAxNTYsMTAzLDU2Mi4wMTU2LDEwNyw1NTIuMDE1NiwxMDMsNTU2LjAxNTYiIHN0eWxlPSJzdHJva2U6IzE4MTgxODtzdHJva2Utd2lkdGg6MTsiLz48bGluZSBzdHlsZT0ic3Ryb2tlOiMxODE4MTg7c3Ryb2tlLXdpZHRoOjE7IiB4MT0iMjkyIiB4Mj0iMjkyIiB5MT0iMzUzLjQ4NDQiIHkyPSIzNzMuNDg0NCIvPjxwb2x5Z29uIGZpbGw9IiMxODE4MTgiIHBvaW50cz0iMjg4LDM2My40ODQ0LDI5MiwzNzMuNDg0NCwyOTYsMzYzLjQ4NDQsMjkyLDM2Ny40ODQ0IiBzdHlsZT0ic3Ryb2tlOiMxODE4MTg7c3Ryb2tlLXdpZHRoOjE7Ii8+PGxpbmUgc3R5bGU9InN0cm9rZTojMTgxODE4O3N0cm9rZS13aWR0aDoxOyIgeDE9IjI5MiIgeDI9IjI5MiIgeTE9IjQwNi4zMjgxIiB5Mj0iNDI2LjMyODEiLz48cG9seWdvbiBmaWxsPSIjMTgxODE4IiBwb2ludHM9IjI4OCw0MTYuMzI4MSwyOTIsNDI2LjMyODEsMjk2LDQxNi4zMjgxLDI5Miw0MjAuMzI4MSIgc3R5bGU9InN0cm9rZTojMTgxODE4O3N0cm9rZS13aWR0aDoxOyIvPjxsaW5lIHN0eWxlPSJzdHJva2U6IzE4MTgxODtzdHJva2Utd2lkdGg6MTsiIHgxPSIzNDguNzUiIHgyPSIyOTIiIHkxPSIyOTguNjQwNiIgeTI9IjI5OC42NDA2Ii8+PGxpbmUgc3R5bGU9InN0cm9rZTojMTgxODE4O3N0cm9rZS13aWR0aDoxOyIgeDE9IjI5MiIgeDI9IjI5MiIgeTE9IjI5OC42NDA2IiB5Mj0iMzIwLjY0MDYiLz48cG9seWdvbiBmaWxsPSIjMTgxODE4IiBwb2ludHM9IjI4OCwzMTAuNjQwNiwyOTIsMzIwLjY0MDYsMjk2LDMxMC42NDA2LDI5MiwzMTQuNjQwNiIgc3R5bGU9InN0cm9rZTojMTgxODE4O3N0cm9rZS13aWR0aDoxOyIvPjxsaW5lIHN0eWxlPSJzdHJva2U6IzE4MTgxODtzdHJva2Utd2lkdGg6MTsiIHgxPSI0MjIuMjUiIHgyPSI0NzkiIHkxPSIyOTguNjQwNiIgeTI9IjI5OC42NDA2Ii8+PGxpbmUgc3R5bGU9InN0cm9rZTojMTgxODE4O3N0cm9rZS13aWR0aDoxOyIgeDE9IjQ3OSIgeDI9IjQ3OSIgeTE9IjI5OC42NDA2IiB5Mj0iMzIwLjY0MDYiLz48cG9seWdvbiBmaWxsPSIjMTgxODE4IiBwb2ludHM9IjQ3NSwzMTAuNjQwNiw0NzksMzIwLjY0MDYsNDgzLDMxMC42NDA2LDQ3OSwzMTQuNjQwNiIgc3R5bGU9InN0cm9rZTojMTgxODE4O3N0cm9rZS13aWR0aDoxOyIvPjxsaW5lIHN0eWxlPSJzdHJva2U6IzE4MTgxODtzdHJva2Utd2lkdGg6MTsiIHgxPSIyOTIiIHgyPSIyOTIiIHkxPSI0NTkuMTcxOSIgeTI9IjQ3Ny4xNzE5Ii8+PGxpbmUgc3R5bGU9InN0cm9rZTojMTgxODE4O3N0cm9rZS13aWR0aDoxOyIgeDE9IjI5MiIgeDI9IjM3My41IiB5MT0iNDc3LjE3MTkiIHkyPSI0NzcuMTcxOSIvPjxwb2x5Z29uIGZpbGw9IiMxODE4MTgiIHBvaW50cz0iMzYzLjUsNDczLjE3MTksMzczLjUsNDc3LjE3MTksMzYzLjUsNDgxLjE3MTksMzY3LjUsNDc3LjE3MTkiIHN0eWxlPSJzdHJva2U6IzE4MTgxODtzdHJva2Utd2lkdGg6MTsiLz48bGluZSBzdHlsZT0ic3Ryb2tlOiMxODE4MTg7c3Ryb2tlLXdpZHRoOjE7IiB4MT0iNDc5IiB4Mj0iNDc5IiB5MT0iMzUzLjQ4NDQiIHkyPSI0NzcuMTcxOSIvPjxsaW5lIHN0eWxlPSJzdHJva2U6IzE4MTgxODtzdHJva2Utd2lkdGg6MTsiIHgxPSI0NzkiIHgyPSIzOTcuNSIgeTE9IjQ3Ny4xNzE5IiB5Mj0iNDc3LjE3MTkiLz48cG9seWdvbiBmaWxsPSIjMTgxODE4IiBwb2ludHM9IjQwNy41LDQ3My4xNzE5LDM5Ny41LDQ3Ny4xNzE5LDQwNy41LDQ4MS4xNzE5LDQwMy41LDQ3Ny4xNzE5IiBzdHlsZT0ic3Ryb2tlOiMxODE4MTg7c3Ryb2tlLXdpZHRoOjE7Ii8+PGxpbmUgc3R5bGU9InN0cm9rZTojMTgxODE4O3N0cm9rZS13aWR0aDoxOyIgeDE9IjM4NS41IiB4Mj0iMzg1LjUiIHkxPSIyNjYuNjQwNiIgeTI9IjI4Ni42NDA2Ii8+PHBvbHlnb24gZmlsbD0iIzE4MTgxOCIgcG9pbnRzPSIzODEuNSwyNzYuNjQwNiwzODUuNSwyODYuNjQwNiwzODkuNSwyNzYuNjQwNiwzODUuNSwyODAuNjQwNiIgc3R5bGU9InN0cm9rZTojMTgxODE4O3N0cm9rZS13aWR0aDoxOyIvPjxsaW5lIHN0eWxlPSJzdHJva2U6IzE4MTgxODtzdHJva2Utd2lkdGg6MTsiIHgxPSIxMDMiIHgyPSIxMDMiIHkxPSIyMTMuNzk2OSIgeTI9IjIxOC43OTY5Ii8+PGxpbmUgc3R5bGU9InN0cm9rZTojMTgxODE4O3N0cm9rZS13aWR0aDoxOyIgeDE9IjEwMyIgeDI9IjM4NS41IiB5MT0iMjE4Ljc5NjkiIHkyPSIyMTguNzk2OSIvPjxsaW5lIHN0eWxlPSJzdHJva2U6IzE4MTgxODtzdHJva2Utd2lkdGg6MTsiIHgxPSIzODUuNSIgeDI9IjM4NS41IiB5MT0iMjE4Ljc5NjkiIHkyPSIyMzMuNzk2OSIvPjxwb2x5Z29uIGZpbGw9IiMxODE4MTgiIHBvaW50cz0iMzgxLjUsMjIzLjc5NjksMzg1LjUsMjMzLjc5NjksMzg5LjUsMjIzLjc5NjksMzg1LjUsMjI3Ljc5NjkiIHN0eWxlPSJzdHJva2U6IzE4MTgxODtzdHJva2Utd2lkdGg6MTsiLz48bGluZSBzdHlsZT0ic3Ryb2tlOiMxODE4MTg7c3Ryb2tlLXdpZHRoOjE7IiB4MT0iMzg1LjUiIHgyPSIzODUuNSIgeTE9IjQ4OS4xNzE5IiB5Mj0iNDk0LjE3MTkiLz48bGluZSBzdHlsZT0ic3Ryb2tlOiMxODE4MTg7c3Ryb2tlLXdpZHRoOjE7IiB4MT0iMzg1LjUiIHgyPSIxMDMiIHkxPSI0OTQuMTcxOSIgeTI9IjQ5NC4xNzE5Ii8+PGxpbmUgc3R5bGU9InN0cm9rZTojMTgxODE4O3N0cm9rZS13aWR0aDoxOyIgeDE9IjEwMyIgeDI9IjEwMyIgeTE9IjQ5NC4xNzE5IiB5Mj0iNTA5LjE3MTkiLz48cG9seWdvbiBmaWxsPSIjMTgxODE4IiBwb2ludHM9Ijk5LDQ5OS4xNzE5LDEwMyw1MDkuMTcxOSwxMDcsNDk5LjE3MTksMTAzLDUwMy4xNzE5IiBzdHlsZT0ic3Ryb2tlOiMxODE4MTg7c3Ryb2tlLXdpZHRoOjE7Ii8+PHRleHQgZmlsbD0iIzAwMDAwMCIgZm9udC1mYW1pbHk9InNhbnMtc2VyaWYiIGZvbnQtc2l6ZT0iMTgiIGxlbmd0aEFkanVzdD0ic3BhY2luZyIgdGV4dExlbmd0aD0iNDUiIHg9Ijc5LjUiIHk9IjI4LjAxNTYiPkd1ZXN0PC90ZXh0Pjx0ZXh0IGZpbGw9IiMwMDAwMDAiIGZvbnQtZmFtaWx5PSJzYW5zLXNlcmlmIiBmb250LXNpemU9IjE4IiBsZW5ndGhBZGp1c3Q9InNwYWNpbmciIHRleHRMZW5ndGg9IjU0IiB4PSIzNDQiIHk9IjI4LjAxNTYiPlN5c3RlbTwvdGV4dD48IS0tU1JDPVtMTDJuSVdEMTVFcHRBdU9odkY4Qmp1TjU1R1E0RDVoNENraGN6WjN4emlZa1dkMlRmT1c0Vm8zWGk1MDhZNVpUNVhPaF9pVi1JSlA2bXpoRXA5aXRDLXRIakoyc1BTUEV2Zk9MZkdwa1dNMTJ0bjRRNlZlTm5IRktCSjN4Vldra2VvaDJleVdfNHg5SndMeUxSbG5JZXdnM1V1SnFJd2VvcGJYeFNja2lLMnFoWllEbmZzM2Q0elpXZFdYTktkRE1KdjZOX2ZyczV1UzNNMmE4LVBhbTBtT0tFLUNxSkZBNVJuTGJ3RFNEQTc5aC1weVYzZ0JDaHR2S20tcnBZa1IxdFFTSHlSTm03SXVJM3l4NHAwWmE4X3FOdTJGQXBsckE4bms2X2pGa2ttY3doQVVudVV6LW5MWWVyOWg3SE5NcDBHMDBdLS0+PC9nPjwvc3ZnPg==;" vertex="1" parent="1">
            <mxGeometry x="1880" y="-1010" width="574" height="596" as="geometry" />
          </mxCell>
        </UserObject>
        <UserObject label="" plantUmlData="{&#xa;  &quot;data&quot;: &quot;@startuml\n|Guest|\nstart\n:Mở cửa sổ chat;\n:Nhập tin nhắn;\n\n|System|\n:Gửi tin nhắn tới nhân viên CSKH;\n:Hiển thị phản hồi từ nhân viên;\n\n|User (CSKH)|\n:Trả lời tin nhắn;\n\n|Guest|\n:Xem phản hồi;\nstop\n@enduml\n&quot;,&#xa;  &quot;format&quot;: &quot;svg&quot;&#xa;}" id="o4Ry2LVALnNqbZM6HUpt-4">
          <mxCell style="shape=image;noLabel=1;verticalAlign=top;aspect=fixed;imageAspect=0;image=data:image/svg+xml,PHN2ZyB4bWxucz0iaHR0cDovL3d3dy53My5vcmcvMjAwMC9zdmciIHhtbG5zOnhsaW5rPSJodHRwOi8vd3d3LnczLm9yZy8xOTk5L3hsaW5rIiBjb250ZW50U3R5bGVUeXBlPSJ0ZXh0L2NzcyIgZGF0YS1kaWFncmFtLXR5cGU9IkFDVElWSVRZIiBoZWlnaHQ9IjQyNnB4IiBwcmVzZXJ2ZUFzcGVjdFJhdGlvPSJub25lIiBzdHlsZT0id2lkdGg6NDkycHg7aGVpZ2h0OjQyNnB4O2JhY2tncm91bmQ6I0ZGRkZGRjsiIHZlcnNpb249IjEuMSIgdmlld0JveD0iMCAwIDQ5MiA0MjYiIHdpZHRoPSI0OTJweCIgem9vbUFuZFBhbj0ibWFnbmlmeSI+PGRlZnMvPjxnPjxyZWN0IGZpbGw9Im5vbmUiIGhlaWdodD0iMTkuMjY1NiIgc3R5bGU9InN0cm9rZTpub25lO3N0cm9rZS13aWR0aDoxOyIgd2lkdGg9IjQ1OS41IiB4PSIxNSIgeT0iMTEiLz48ZWxsaXBzZSBjeD0iNzMiIGN5PSI0NS4yNjU2IiBmaWxsPSIjMjIyMjIyIiByeD0iMTAiIHJ5PSIxMCIgc3R5bGU9InN0cm9rZTojMjIyMjIyO3N0cm9rZS13aWR0aDoxOyIvPjxyZWN0IGZpbGw9IiNGMUYxRjEiIGhlaWdodD0iMzIuODQzOCIgcng9IjEyLjUiIHJ5PSIxMi41IiBzdHlsZT0ic3Ryb2tlOiMxODE4MTg7c3Ryb2tlLXdpZHRoOjAuNTsiIHdpZHRoPSIxMDQiIHg9IjIxIiB5PSI3NS4yNjU2Ii8+PHRleHQgZmlsbD0iIzAwMDAwMCIgZm9udC1mYW1pbHk9InNhbnMtc2VyaWYiIGZvbnQtc2l6ZT0iMTIiIGxlbmd0aEFkanVzdD0ic3BhY2luZyIgdGV4dExlbmd0aD0iODQiIHg9IjMxIiB5PSI5Ni42MDk0Ij5NJiM3OTAzOyBjJiM3OTE3O2EgcyYjNzg5MzsgY2hhdDwvdGV4dD48cmVjdCBmaWxsPSIjRjFGMUYxIiBoZWlnaHQ9IjMyLjg0MzgiIHJ4PSIxMi41IiByeT0iMTIuNSIgc3R5bGU9InN0cm9rZTojMTgxODE4O3N0cm9rZS13aWR0aDowLjU7IiB3aWR0aD0iOTgiIHg9IjI0IiB5PSIxMjguMTA5NCIvPjx0ZXh0IGZpbGw9IiMwMDAwMDAiIGZvbnQtZmFtaWx5PSJzYW5zLXNlcmlmIiBmb250LXNpemU9IjEyIiBsZW5ndGhBZGp1c3Q9InNwYWNpbmciIHRleHRMZW5ndGg9Ijc4IiB4PSIzNCIgeT0iMTQ5LjQ1MzEiPk5oJiM3ODUzO3AgdGluIG5oJiM3ODU1O248L3RleHQ+PHJlY3QgZmlsbD0iI0YxRjFGMSIgaGVpZ2h0PSIzMi44NDM4IiByeD0iMTIuNSIgcnk9IjEyLjUiIHN0eWxlPSJzdHJva2U6IzE4MTgxODtzdHJva2Utd2lkdGg6MC41OyIgd2lkdGg9IjkyIiB4PSIyNyIgeT0iMzM5LjQ4NDQiLz48dGV4dCBmaWxsPSIjMDAwMDAwIiBmb250LWZhbWlseT0ic2Fucy1zZXJpZiIgZm9udC1zaXplPSIxMiIgbGVuZ3RoQWRqdXN0PSJzcGFjaW5nIiB0ZXh0TGVuZ3RoPSI3MiIgeD0iMzciIHk9IjM2MC44MjgxIj5YZW0gcGgmIzc4NDM7biBoJiM3ODkxO2k8L3RleHQ+PGVsbGlwc2UgY3g9IjczIiBjeT0iNDAzLjMyODEiIGZpbGw9Im5vbmUiIHJ4PSIxMSIgcnk9IjExIiBzdHlsZT0ic3Ryb2tlOiMyMjIyMjI7c3Ryb2tlLXdpZHRoOjE7Ii8+PGVsbGlwc2UgY3g9IjczIiBjeT0iNDAzLjMyODEiIGZpbGw9IiMyMjIyMjIiIHJ4PSI2IiByeT0iNiIgc3R5bGU9InN0cm9rZTojMjIyMjIyO3N0cm9rZS13aWR0aDoxOyIvPjxsaW5lIHN0eWxlPSJzdHJva2U6IzAwMDAwMDtzdHJva2Utd2lkdGg6MS41OyIgeDE9IjE1IiB4Mj0iMTUiIHkxPSIxMSIgeTI9IjQxNC4zMjgxIi8+PHJlY3QgZmlsbD0iI0YxRjFGMSIgaGVpZ2h0PSIzMi44NDM4IiByeD0iMTIuNSIgcnk9IjEyLjUiIHN0eWxlPSJzdHJva2U6IzE4MTgxODtzdHJva2Utd2lkdGg6MC41OyIgd2lkdGg9IjIwNiIgeD0iMTM1IiB5PSIxODAuOTUzMSIvPjx0ZXh0IGZpbGw9IiMwMDAwMDAiIGZvbnQtZmFtaWx5PSJzYW5zLXNlcmlmIiBmb250LXNpemU9IjEyIiBsZW5ndGhBZGp1c3Q9InNwYWNpbmciIHRleHRMZW5ndGg9IjE4NiIgeD0iMTQ1IiB5PSIyMDIuMjk2OSI+RyYjNzkxNztpIHRpbiBuaCYjNzg1NTtuIHQmIzc4OTk7aSBuaCYjMjI2O24gdmkmIzIzNDtuIENTS0g8L3RleHQ+PHJlY3QgZmlsbD0iI0YxRjFGMSIgaGVpZ2h0PSIzMi44NDM4IiByeD0iMTIuNSIgcnk9IjEyLjUiIHN0eWxlPSJzdHJva2U6IzE4MTgxODtzdHJva2Utd2lkdGg6MC41OyIgd2lkdGg9IjIwMCIgeD0iMTM4IiB5PSIyMzMuNzk2OSIvPjx0ZXh0IGZpbGw9IiMwMDAwMDAiIGZvbnQtZmFtaWx5PSJzYW5zLXNlcmlmIiBmb250LXNpemU9IjEyIiBsZW5ndGhBZGp1c3Q9InNwYWNpbmciIHRleHRMZW5ndGg9IjE4MCIgeD0iMTQ4IiB5PSIyNTUuMTQwNiI+SGkmIzc4NzU7biB0aCYjNzg4MzsgcGgmIzc4NDM7biBoJiM3ODkxO2kgdCYjNzkxNTsgbmgmIzIyNjtuIHZpJiMyMzQ7bjwvdGV4dD48bGluZSBzdHlsZT0ic3Ryb2tlOiMwMDAwMDA7c3Ryb2tlLXdpZHRoOjEuNTsiIHgxPSIxMjkiIHgyPSIxMjkiIHkxPSIxMSIgeTI9IjQxNC4zMjgxIi8+PHJlY3QgZmlsbD0iI0YxRjFGMSIgaGVpZ2h0PSIzMi44NDM4IiByeD0iMTIuNSIgcnk9IjEyLjUiIHN0eWxlPSJzdHJva2U6IzE4MTgxODtzdHJva2Utd2lkdGg6MC41OyIgd2lkdGg9IjExNiIgeD0iMzUxIiB5PSIyODYuNjQwNiIvPjx0ZXh0IGZpbGw9IiMwMDAwMDAiIGZvbnQtZmFtaWx5PSJzYW5zLXNlcmlmIiBmb250LXNpemU9IjEyIiBsZW5ndGhBZGp1c3Q9InNwYWNpbmciIHRleHRMZW5ndGg9Ijk2IiB4PSIzNjEiIHk9IjMwNy45ODQ0Ij5UciYjNzg0MzsgbCYjNzkwMTtpIHRpbiBuaCYjNzg1NTtuPC90ZXh0PjxsaW5lIHN0eWxlPSJzdHJva2U6IzAwMDAwMDtzdHJva2Utd2lkdGg6MS41OyIgeDE9IjM0NSIgeDI9IjM0NSIgeTE9IjExIiB5Mj0iNDE0LjMyODEiLz48bGluZSBzdHlsZT0ic3Ryb2tlOiMwMDAwMDA7c3Ryb2tlLXdpZHRoOjEuNTsiIHgxPSI0NzEiIHgyPSI0NzEiIHkxPSIxMSIgeTI9IjQxNC4zMjgxIi8+PGxpbmUgc3R5bGU9InN0cm9rZTojMTgxODE4O3N0cm9rZS13aWR0aDoxOyIgeDE9IjczIiB4Mj0iNzMiIHkxPSI1NS4yNjU2IiB5Mj0iNzUuMjY1NiIvPjxwb2x5Z29uIGZpbGw9IiMxODE4MTgiIHBvaW50cz0iNjksNjUuMjY1Niw3Myw3NS4yNjU2LDc3LDY1LjI2NTYsNzMsNjkuMjY1NiIgc3R5bGU9InN0cm9rZTojMTgxODE4O3N0cm9rZS13aWR0aDoxOyIvPjxsaW5lIHN0eWxlPSJzdHJva2U6IzE4MTgxODtzdHJva2Utd2lkdGg6MTsiIHgxPSI3MyIgeDI9IjczIiB5MT0iMTA4LjEwOTQiIHkyPSIxMjguMTA5NCIvPjxwb2x5Z29uIGZpbGw9IiMxODE4MTgiIHBvaW50cz0iNjksMTE4LjEwOTQsNzMsMTI4LjEwOTQsNzcsMTE4LjEwOTQsNzMsMTIyLjEwOTQiIHN0eWxlPSJzdHJva2U6IzE4MTgxODtzdHJva2Utd2lkdGg6MTsiLz48bGluZSBzdHlsZT0ic3Ryb2tlOiMxODE4MTg7c3Ryb2tlLXdpZHRoOjE7IiB4MT0iNzMiIHgyPSI3MyIgeTE9IjM3Mi4zMjgxIiB5Mj0iMzkyLjMyODEiLz48cG9seWdvbiBmaWxsPSIjMTgxODE4IiBwb2ludHM9IjY5LDM4Mi4zMjgxLDczLDM5Mi4zMjgxLDc3LDM4Mi4zMjgxLDczLDM4Ni4zMjgxIiBzdHlsZT0ic3Ryb2tlOiMxODE4MTg7c3Ryb2tlLXdpZHRoOjE7Ii8+PGxpbmUgc3R5bGU9InN0cm9rZTojMTgxODE4O3N0cm9rZS13aWR0aDoxOyIgeDE9IjIzOCIgeDI9IjIzOCIgeTE9IjIxMy43OTY5IiB5Mj0iMjMzLjc5NjkiLz48cG9seWdvbiBmaWxsPSIjMTgxODE4IiBwb2ludHM9IjIzNCwyMjMuNzk2OSwyMzgsMjMzLjc5NjksMjQyLDIyMy43OTY5LDIzOCwyMjcuNzk2OSIgc3R5bGU9InN0cm9rZTojMTgxODE4O3N0cm9rZS13aWR0aDoxOyIvPjxsaW5lIHN0eWxlPSJzdHJva2U6IzE4MTgxODtzdHJva2Utd2lkdGg6MTsiIHgxPSI3MyIgeDI9IjczIiB5MT0iMTYwLjk1MzEiIHkyPSIxNjUuOTUzMSIvPjxsaW5lIHN0eWxlPSJzdHJva2U6IzE4MTgxODtzdHJva2Utd2lkdGg6MTsiIHgxPSI3MyIgeDI9IjIzOCIgeTE9IjE2NS45NTMxIiB5Mj0iMTY1Ljk1MzEiLz48bGluZSBzdHlsZT0ic3Ryb2tlOiMxODE4MTg7c3Ryb2tlLXdpZHRoOjE7IiB4MT0iMjM4IiB4Mj0iMjM4IiB5MT0iMTY1Ljk1MzEiIHkyPSIxODAuOTUzMSIvPjxwb2x5Z29uIGZpbGw9IiMxODE4MTgiIHBvaW50cz0iMjM0LDE3MC45NTMxLDIzOCwxODAuOTUzMSwyNDIsMTcwLjk1MzEsMjM4LDE3NC45NTMxIiBzdHlsZT0ic3Ryb2tlOiMxODE4MTg7c3Ryb2tlLXdpZHRoOjE7Ii8+PGxpbmUgc3R5bGU9InN0cm9rZTojMTgxODE4O3N0cm9rZS13aWR0aDoxOyIgeDE9IjIzOCIgeDI9IjIzOCIgeTE9IjI2Ni42NDA2IiB5Mj0iMjcxLjY0MDYiLz48bGluZSBzdHlsZT0ic3Ryb2tlOiMxODE4MTg7c3Ryb2tlLXdpZHRoOjE7IiB4MT0iMjM4IiB4Mj0iNDA5IiB5MT0iMjcxLjY0MDYiIHkyPSIyNzEuNjQwNiIvPjxsaW5lIHN0eWxlPSJzdHJva2U6IzE4MTgxODtzdHJva2Utd2lkdGg6MTsiIHgxPSI0MDkiIHgyPSI0MDkiIHkxPSIyNzEuNjQwNiIgeTI9IjI4Ni42NDA2Ii8+PHBvbHlnb24gZmlsbD0iIzE4MTgxOCIgcG9pbnRzPSI0MDUsMjc2LjY0MDYsNDA5LDI4Ni42NDA2LDQxMywyNzYuNjQwNiw0MDksMjgwLjY0MDYiIHN0eWxlPSJzdHJva2U6IzE4MTgxODtzdHJva2Utd2lkdGg6MTsiLz48bGluZSBzdHlsZT0ic3Ryb2tlOiMxODE4MTg7c3Ryb2tlLXdpZHRoOjE7IiB4MT0iNDA5IiB4Mj0iNDA5IiB5MT0iMzE5LjQ4NDQiIHkyPSIzMjQuNDg0NCIvPjxsaW5lIHN0eWxlPSJzdHJva2U6IzE4MTgxODtzdHJva2Utd2lkdGg6MTsiIHgxPSI0MDkiIHgyPSI3MyIgeTE9IjMyNC40ODQ0IiB5Mj0iMzI0LjQ4NDQiLz48bGluZSBzdHlsZT0ic3Ryb2tlOiMxODE4MTg7c3Ryb2tlLXdpZHRoOjE7IiB4MT0iNzMiIHgyPSI3MyIgeTE9IjMyNC40ODQ0IiB5Mj0iMzM5LjQ4NDQiLz48cG9seWdvbiBmaWxsPSIjMTgxODE4IiBwb2ludHM9IjY5LDMyOS40ODQ0LDczLDMzOS40ODQ0LDc3LDMyOS40ODQ0LDczLDMzMy40ODQ0IiBzdHlsZT0ic3Ryb2tlOiMxODE4MTg7c3Ryb2tlLXdpZHRoOjE7Ii8+PHRleHQgZmlsbD0iIzAwMDAwMCIgZm9udC1mYW1pbHk9InNhbnMtc2VyaWYiIGZvbnQtc2l6ZT0iMTgiIGxlbmd0aEFkanVzdD0ic3BhY2luZyIgdGV4dExlbmd0aD0iNDUiIHg9IjQ5LjUiIHk9IjI4LjAxNTYiPkd1ZXN0PC90ZXh0Pjx0ZXh0IGZpbGw9IiMwMDAwMDAiIGZvbnQtZmFtaWx5PSJzYW5zLXNlcmlmIiBmb250LXNpemU9IjE4IiBsZW5ndGhBZGp1c3Q9InNwYWNpbmciIHRleHRMZW5ndGg9IjU0IiB4PSIyMTAiIHk9IjI4LjAxNTYiPlN5c3RlbTwvdGV4dD48dGV4dCBmaWxsPSIjMDAwMDAwIiBmb250LWZhbWlseT0ic2Fucy1zZXJpZiIgZm9udC1zaXplPSIxOCIgbGVuZ3RoQWRqdXN0PSJzcGFjaW5nIiB0ZXh0TGVuZ3RoPSI5OSIgeD0iMzU4LjUiIHk9IjI4LjAxNTYiPlVzZXIgKENTS0gpPC90ZXh0PjwhLS1TUkM9W2d0NGxKSXFrZ1U0Z0JhYWlBazZveWRzdVV4djJ5aUZUUW5DTFlYX2tkZ2dHZDk1T09pcmJ2UFZuU0RWUTBlTUlwM281RjIxcFZQdXI1clREUzZMbklNZmszUFVMRXIxejlmQWFHaWQzdFJDcFdQcDNZXzhLb1o4Rmh5ZkpTMHhzelcyUXV2N3ZTN1NwSzN4WnVVdmtYR0FXdWlMdjJhM3N2NG9HYmpOOEVhME1YMVFkNVliZVdCSGcwY3E5QUc4Z0x5WHZrN2prOWZmM2U1d21ZYVpESEo3SzZrWWhfMDgwXS0tPjwvZz48L3N2Zz4=;" vertex="1" parent="1">
            <mxGeometry x="2729" y="-930" width="492" height="426" as="geometry" />
          </mxCell>
        </UserObject>
        <UserObject label="" plantUmlData="{&#xa;  &quot;data&quot;: &quot;@startuml\n|Customer|\nstart\n:Đăng nhập hệ thống;\n:Xem danh sách đơn hàng;\n\n|System|\n:Lấy danh sách đơn hàng của khách;\n:Hiển thị đơn hàng + trạng thái;\n\n|Customer|\n:Chọn đơn hàng;\n:Xem chi tiết (sản phẩm, giá, trạng thái...);\nstop\n@enduml&quot;,&#xa;  &quot;format&quot;: &quot;svg&quot;&#xa;}" id="o4Ry2LVALnNqbZM6HUpt-5">
          <mxCell style="shape=image;noLabel=1;verticalAlign=top;aspect=fixed;imageAspect=0;image=data:image/svg+xml,PHN2ZyB4bWxucz0iaHR0cDovL3d3dy53My5vcmcvMjAwMC9zdmciIHhtbG5zOnhsaW5rPSJodHRwOi8vd3d3LnczLm9yZy8xOTk5L3hsaW5rIiBjb250ZW50U3R5bGVUeXBlPSJ0ZXh0L2NzcyIgZGF0YS1kaWFncmFtLXR5cGU9IkFDVElWSVRZIiBoZWlnaHQ9IjQyNnB4IiBwcmVzZXJ2ZUFzcGVjdFJhdGlvPSJub25lIiBzdHlsZT0id2lkdGg6NTQ2cHg7aGVpZ2h0OjQyNnB4O2JhY2tncm91bmQ6I0ZGRkZGRjsiIHZlcnNpb249IjEuMSIgdmlld0JveD0iMCAwIDU0NiA0MjYiIHdpZHRoPSI1NDZweCIgem9vbUFuZFBhbj0ibWFnbmlmeSI+PGRlZnMvPjxnPjxyZWN0IGZpbGw9Im5vbmUiIGhlaWdodD0iMTkuMjY1NiIgc3R5bGU9InN0cm9rZTpub25lO3N0cm9rZS13aWR0aDoxOyIgd2lkdGg9IjUxMy41IiB4PSIxNSIgeT0iMTEiLz48ZWxsaXBzZSBjeD0iMTYwIiBjeT0iNDUuMjY1NiIgZmlsbD0iIzIyMjIyMiIgcng9IjEwIiByeT0iMTAiIHN0eWxlPSJzdHJva2U6IzIyMjIyMjtzdHJva2Utd2lkdGg6MTsiLz48cmVjdCBmaWxsPSIjRjFGMUYxIiBoZWlnaHQ9IjMyLjg0MzgiIHJ4PSIxMi41IiByeT0iMTIuNSIgc3R5bGU9InN0cm9rZTojMTgxODE4O3N0cm9rZS13aWR0aDowLjU7IiB3aWR0aD0iMTI4IiB4PSI5NiIgeT0iNzUuMjY1NiIvPjx0ZXh0IGZpbGw9IiMwMDAwMDAiIGZvbnQtZmFtaWx5PSJzYW5zLXNlcmlmIiBmb250LXNpemU9IjEyIiBsZW5ndGhBZGp1c3Q9InNwYWNpbmciIHRleHRMZW5ndGg9IjEwOCIgeD0iMTA2IiB5PSI5Ni42MDk0Ij4mIzI3MjsmIzI1OTtuZyBuaCYjNzg1MztwIGgmIzc4Nzk7IHRoJiM3ODg5O25nPC90ZXh0PjxyZWN0IGZpbGw9IiNGMUYxRjEiIGhlaWdodD0iMzIuODQzOCIgcng9IjEyLjUiIHJ5PSIxMi41IiBzdHlsZT0ic3Ryb2tlOiMxODE4MTg7c3Ryb2tlLXdpZHRoOjAuNTsiIHdpZHRoPSIxNTIiIHg9Ijg0IiB5PSIxMjguMTA5NCIvPjx0ZXh0IGZpbGw9IiMwMDAwMDAiIGZvbnQtZmFtaWx5PSJzYW5zLXNlcmlmIiBmb250LXNpemU9IjEyIiBsZW5ndGhBZGp1c3Q9InNwYWNpbmciIHRleHRMZW5ndGg9IjEzMiIgeD0iOTQiIHk9IjE0OS40NTMxIj5YZW0gZGFuaCBzJiMyMjU7Y2ggJiMyNzM7JiM0MTc7biBoJiMyMjQ7bmc8L3RleHQ+PHJlY3QgZmlsbD0iI0YxRjFGMSIgaGVpZ2h0PSIzMi44NDM4IiByeD0iMTIuNSIgcnk9IjEyLjUiIHN0eWxlPSJzdHJva2U6IzE4MTgxODtzdHJva2Utd2lkdGg6MC41OyIgd2lkdGg9Ijk4IiB4PSIxMTEiIHk9IjI4Ni42NDA2Ii8+PHRleHQgZmlsbD0iIzAwMDAwMCIgZm9udC1mYW1pbHk9InNhbnMtc2VyaWYiIGZvbnQtc2l6ZT0iMTIiIGxlbmd0aEFkanVzdD0ic3BhY2luZyIgdGV4dExlbmd0aD0iNzgiIHg9IjEyMSIgeT0iMzA3Ljk4NDQiPkNoJiM3ODg1O24gJiMyNzM7JiM0MTc7biBoJiMyMjQ7bmc8L3RleHQ+PHJlY3QgZmlsbD0iI0YxRjFGMSIgaGVpZ2h0PSIzMi44NDM4IiByeD0iMTIuNSIgcnk9IjEyLjUiIHN0eWxlPSJzdHJva2U6IzE4MTgxODtzdHJva2Utd2lkdGg6MC41OyIgd2lkdGg9IjI3OCIgeD0iMjEiIHk9IjMzOS40ODQ0Ii8+PHRleHQgZmlsbD0iIzAwMDAwMCIgZm9udC1mYW1pbHk9InNhbnMtc2VyaWYiIGZvbnQtc2l6ZT0iMTIiIGxlbmd0aEFkanVzdD0ic3BhY2luZyIgdGV4dExlbmd0aD0iMjU4IiB4PSIzMSIgeT0iMzYwLjgyODEiPlhlbSBjaGkgdGkmIzc4NzE7dCAocyYjNzg0MztuIHBoJiM3ODQ5O20sIGdpJiMyMjU7LCB0ciYjNzg0MTtuZyB0aCYjMjI1O2kuLi4pPC90ZXh0PjxlbGxpcHNlIGN4PSIxNjAiIGN5PSI0MDMuMzI4MSIgZmlsbD0ibm9uZSIgcng9IjExIiByeT0iMTEiIHN0eWxlPSJzdHJva2U6IzIyMjIyMjtzdHJva2Utd2lkdGg6MTsiLz48ZWxsaXBzZSBjeD0iMTYwIiBjeT0iNDAzLjMyODEiIGZpbGw9IiMyMjIyMjIiIHJ4PSI2IiByeT0iNiIgc3R5bGU9InN0cm9rZTojMjIyMjIyO3N0cm9rZS13aWR0aDoxOyIvPjxsaW5lIHN0eWxlPSJzdHJva2U6IzAwMDAwMDtzdHJva2Utd2lkdGg6MS41OyIgeDE9IjE1IiB4Mj0iMTUiIHkxPSIxMSIgeTI9IjQxNC4zMjgxIi8+PHJlY3QgZmlsbD0iI0YxRjFGMSIgaGVpZ2h0PSIzMi44NDM4IiByeD0iMTIuNSIgcnk9IjEyLjUiIHN0eWxlPSJzdHJva2U6IzE4MTgxODtzdHJva2Utd2lkdGg6MC41OyIgd2lkdGg9IjIxMiIgeD0iMzA5IiB5PSIxODAuOTUzMSIvPjx0ZXh0IGZpbGw9IiMwMDAwMDAiIGZvbnQtZmFtaWx5PSJzYW5zLXNlcmlmIiBmb250LXNpemU9IjEyIiBsZW5ndGhBZGp1c3Q9InNwYWNpbmciIHRleHRMZW5ndGg9IjE5MiIgeD0iMzE5IiB5PSIyMDIuMjk2OSI+TCYjNzg0NTt5IGRhbmggcyYjMjI1O2NoICYjMjczOyYjNDE3O24gaCYjMjI0O25nIGMmIzc5MTE7YSBraCYjMjI1O2NoPC90ZXh0PjxyZWN0IGZpbGw9IiNGMUYxRjEiIGhlaWdodD0iMzIuODQzOCIgcng9IjEyLjUiIHJ5PSIxMi41IiBzdHlsZT0ic3Ryb2tlOiMxODE4MTg7c3Ryb2tlLXdpZHRoOjAuNTsiIHdpZHRoPSIyMDAiIHg9IjMxNSIgeT0iMjMzLjc5NjkiLz48dGV4dCBmaWxsPSIjMDAwMDAwIiBmb250LWZhbWlseT0ic2Fucy1zZXJpZiIgZm9udC1zaXplPSIxMiIgbGVuZ3RoQWRqdXN0PSJzcGFjaW5nIiB0ZXh0TGVuZ3RoPSIxODAiIHg9IjMyNSIgeT0iMjU1LjE0MDYiPkhpJiM3ODc1O24gdGgmIzc4ODM7ICYjMjczOyYjNDE3O24gaCYjMjI0O25nICsgdHImIzc4NDE7bmcgdGgmIzIyNTtpPC90ZXh0PjxsaW5lIHN0eWxlPSJzdHJva2U6IzAwMDAwMDtzdHJva2Utd2lkdGg6MS41OyIgeDE9IjMwMyIgeDI9IjMwMyIgeTE9IjExIiB5Mj0iNDE0LjMyODEiLz48bGluZSBzdHlsZT0ic3Ryb2tlOiMwMDAwMDA7c3Ryb2tlLXdpZHRoOjEuNTsiIHgxPSI1MjUiIHgyPSI1MjUiIHkxPSIxMSIgeTI9IjQxNC4zMjgxIi8+PGxpbmUgc3R5bGU9InN0cm9rZTojMTgxODE4O3N0cm9rZS13aWR0aDoxOyIgeDE9IjE2MCIgeDI9IjE2MCIgeTE9IjU1LjI2NTYiIHkyPSI3NS4yNjU2Ii8+PHBvbHlnb24gZmlsbD0iIzE4MTgxOCIgcG9pbnRzPSIxNTYsNjUuMjY1NiwxNjAsNzUuMjY1NiwxNjQsNjUuMjY1NiwxNjAsNjkuMjY1NiIgc3R5bGU9InN0cm9rZTojMTgxODE4O3N0cm9rZS13aWR0aDoxOyIvPjxsaW5lIHN0eWxlPSJzdHJva2U6IzE4MTgxODtzdHJva2Utd2lkdGg6MTsiIHgxPSIxNjAiIHgyPSIxNjAiIHkxPSIxMDguMTA5NCIgeTI9IjEyOC4xMDk0Ii8+PHBvbHlnb24gZmlsbD0iIzE4MTgxOCIgcG9pbnRzPSIxNTYsMTE4LjEwOTQsMTYwLDEyOC4xMDk0LDE2NCwxMTguMTA5NCwxNjAsMTIyLjEwOTQiIHN0eWxlPSJzdHJva2U6IzE4MTgxODtzdHJva2Utd2lkdGg6MTsiLz48bGluZSBzdHlsZT0ic3Ryb2tlOiMxODE4MTg7c3Ryb2tlLXdpZHRoOjE7IiB4MT0iMTYwIiB4Mj0iMTYwIiB5MT0iMzE5LjQ4NDQiIHkyPSIzMzkuNDg0NCIvPjxwb2x5Z29uIGZpbGw9IiMxODE4MTgiIHBvaW50cz0iMTU2LDMyOS40ODQ0LDE2MCwzMzkuNDg0NCwxNjQsMzI5LjQ4NDQsMTYwLDMzMy40ODQ0IiBzdHlsZT0ic3Ryb2tlOiMxODE4MTg7c3Ryb2tlLXdpZHRoOjE7Ii8+PGxpbmUgc3R5bGU9InN0cm9rZTojMTgxODE4O3N0cm9rZS13aWR0aDoxOyIgeDE9IjE2MCIgeDI9IjE2MCIgeTE9IjM3Mi4zMjgxIiB5Mj0iMzkyLjMyODEiLz48cG9seWdvbiBmaWxsPSIjMTgxODE4IiBwb2ludHM9IjE1NiwzODIuMzI4MSwxNjAsMzkyLjMyODEsMTY0LDM4Mi4zMjgxLDE2MCwzODYuMzI4MSIgc3R5bGU9InN0cm9rZTojMTgxODE4O3N0cm9rZS13aWR0aDoxOyIvPjxsaW5lIHN0eWxlPSJzdHJva2U6IzE4MTgxODtzdHJva2Utd2lkdGg6MTsiIHgxPSI0MTUiIHgyPSI0MTUiIHkxPSIyMTMuNzk2OSIgeTI9IjIzMy43OTY5Ii8+PHBvbHlnb24gZmlsbD0iIzE4MTgxOCIgcG9pbnRzPSI0MTEsMjIzLjc5NjksNDE1LDIzMy43OTY5LDQxOSwyMjMuNzk2OSw0MTUsMjI3Ljc5NjkiIHN0eWxlPSJzdHJva2U6IzE4MTgxODtzdHJva2Utd2lkdGg6MTsiLz48bGluZSBzdHlsZT0ic3Ryb2tlOiMxODE4MTg7c3Ryb2tlLXdpZHRoOjE7IiB4MT0iMTYwIiB4Mj0iMTYwIiB5MT0iMTYwLjk1MzEiIHkyPSIxNjUuOTUzMSIvPjxsaW5lIHN0eWxlPSJzdHJva2U6IzE4MTgxODtzdHJva2Utd2lkdGg6MTsiIHgxPSIxNjAiIHgyPSI0MTUiIHkxPSIxNjUuOTUzMSIgeTI9IjE2NS45NTMxIi8+PGxpbmUgc3R5bGU9InN0cm9rZTojMTgxODE4O3N0cm9rZS13aWR0aDoxOyIgeDE9IjQxNSIgeDI9IjQxNSIgeTE9IjE2NS45NTMxIiB5Mj0iMTgwLjk1MzEiLz48cG9seWdvbiBmaWxsPSIjMTgxODE4IiBwb2ludHM9IjQxMSwxNzAuOTUzMSw0MTUsMTgwLjk1MzEsNDE5LDE3MC45NTMxLDQxNSwxNzQuOTUzMSIgc3R5bGU9InN0cm9rZTojMTgxODE4O3N0cm9rZS13aWR0aDoxOyIvPjxsaW5lIHN0eWxlPSJzdHJva2U6IzE4MTgxODtzdHJva2Utd2lkdGg6MTsiIHgxPSI0MTUiIHgyPSI0MTUiIHkxPSIyNjYuNjQwNiIgeTI9IjI3MS42NDA2Ii8+PGxpbmUgc3R5bGU9InN0cm9rZTojMTgxODE4O3N0cm9rZS13aWR0aDoxOyIgeDE9IjQxNSIgeDI9IjE2MCIgeTE9IjI3MS42NDA2IiB5Mj0iMjcxLjY0MDYiLz48bGluZSBzdHlsZT0ic3Ryb2tlOiMxODE4MTg7c3Ryb2tlLXdpZHRoOjE7IiB4MT0iMTYwIiB4Mj0iMTYwIiB5MT0iMjcxLjY0MDYiIHkyPSIyODYuNjQwNiIvPjxwb2x5Z29uIGZpbGw9IiMxODE4MTgiIHBvaW50cz0iMTU2LDI3Ni42NDA2LDE2MCwyODYuNjQwNiwxNjQsMjc2LjY0MDYsMTYwLDI4MC42NDA2IiBzdHlsZT0ic3Ryb2tlOiMxODE4MTg7c3Ryb2tlLXdpZHRoOjE7Ii8+PHRleHQgZmlsbD0iIzAwMDAwMCIgZm9udC1mYW1pbHk9InNhbnMtc2VyaWYiIGZvbnQtc2l6ZT0iMTgiIGxlbmd0aEFkanVzdD0ic3BhY2luZyIgdGV4dExlbmd0aD0iNzIiIHg9IjEyMyIgeT0iMjguMDE1NiI+Q3VzdG9tZXI8L3RleHQ+PHRleHQgZmlsbD0iIzAwMDAwMCIgZm9udC1mYW1pbHk9InNhbnMtc2VyaWYiIGZvbnQtc2l6ZT0iMTgiIGxlbmd0aEFkanVzdD0ic3BhY2luZyIgdGV4dExlbmd0aD0iNTQiIHg9IjM4NyIgeT0iMjguMDE1NiI+U3lzdGVtPC90ZXh0PjwhLS1TUkM9W2d0NGtCSXg5cHFxamdrNGdCYWFpQWs2b0VaQlhJN0RVa2E5VW5pRFRRbWlLQ1h4a1JiU2UwUDhKeXpBamtRbVlLZENMS1hCcENYSUEzb3pDcGIwdUNsN09tWm81WkNDQkc5OVNEUzZMbklNZmtKTFNMWnVGVG9zam5BNUc4VmRYeGtNOTJqYVA4MGNXYUh3UDN0U3R2dTdqdzRQSGZ3ckdLbEhtcnE4V2dtSWVEWERhMFNBbkxpdjB6UnJ2ZzJ1MEVveXY4ckVYOUZGWGhscWIyWGg1M3RTanBiQ2UwN2ZiUFF3RUdkaGN1T0t3ZzhSZ3dVYmZNV0R6ZGJ5MDAwMDBdLS0+PC9nPjwvc3ZnPg==;" vertex="1" parent="1">
            <mxGeometry x="3552" y="-930" width="546" height="426" as="geometry" />
          </mxCell>
        </UserObject>
        <UserObject label="" plantUmlData="{&#xa;  &quot;data&quot;: &quot;@startuml\n|Customer|\nstart\n:Chọn đơn hàng cần thanh toán;\n:Chọn phương thức thanh toán (Online / COD);\n\n|System|\nif (Online Payment?) then (Yes)\n  :Kết nối cổng thanh toán;\n  if (Thanh toán thành công?) then (Yes)\n    :Xác nhận thanh toán thành công;\n  else (No)\n    :Thông báo lỗi;\n  endif\nelse (COD)\n  :Ghi nhận thanh toán khi giao hàng;\nendif\n\n:Hiển thị xác nhận đơn hàng;\nstop\n@enduml\n&quot;,&#xa;  &quot;format&quot;: &quot;svg&quot;&#xa;}" id="o4Ry2LVALnNqbZM6HUpt-6">
          <mxCell style="shape=image;noLabel=1;verticalAlign=top;aspect=fixed;imageAspect=0;image=data:image/svg+xml,PHN2ZyB4bWxucz0iaHR0cDovL3d3dy53My5vcmcvMjAwMC9zdmciIHhtbG5zOnhsaW5rPSJodHRwOi8vd3d3LnczLm9yZy8xOTk5L3hsaW5rIiBjb250ZW50U3R5bGVUeXBlPSJ0ZXh0L2NzcyIgZGF0YS1kaWFncmFtLXR5cGU9IkFDVElWSVRZIiBoZWlnaHQ9IjUwMXB4IiBwcmVzZXJ2ZUFzcGVjdFJhdGlvPSJub25lIiBzdHlsZT0id2lkdGg6ODk0cHg7aGVpZ2h0OjUwMXB4O2JhY2tncm91bmQ6I0ZGRkZGRjsiIHZlcnNpb249IjEuMSIgdmlld0JveD0iMCAwIDg5NCA1MDEiIHdpZHRoPSI4OTRweCIgem9vbUFuZFBhbj0ibWFnbmlmeSI+PGRlZnMvPjxnPjxyZWN0IGZpbGw9Im5vbmUiIGhlaWdodD0iMTkuMjY1NiIgc3R5bGU9InN0cm9rZTpub25lO3N0cm9rZS13aWR0aDoxOyIgd2lkdGg9Ijg2MS41IiB4PSIxNSIgeT0iMTEiLz48ZWxsaXBzZSBjeD0iMTU3IiBjeT0iNDUuMjY1NiIgZmlsbD0iIzIyMjIyMiIgcng9IjEwIiByeT0iMTAiIHN0eWxlPSJzdHJva2U6IzIyMjIyMjtzdHJva2Utd2lkdGg6MTsiLz48cmVjdCBmaWxsPSIjRjFGMUYxIiBoZWlnaHQ9IjMyLjg0MzgiIHJ4PSIxMi41IiByeT0iMTIuNSIgc3R5bGU9InN0cm9rZTojMTgxODE4O3N0cm9rZS13aWR0aDowLjU7IiB3aWR0aD0iMTg4IiB4PSI2MyIgeT0iNzUuMjY1NiIvPjx0ZXh0IGZpbGw9IiMwMDAwMDAiIGZvbnQtZmFtaWx5PSJzYW5zLXNlcmlmIiBmb250LXNpemU9IjEyIiBsZW5ndGhBZGp1c3Q9InNwYWNpbmciIHRleHRMZW5ndGg9IjE2OCIgeD0iNzMiIHk9Ijk2LjYwOTQiPkNoJiM3ODg1O24gJiMyNzM7JiM0MTc7biBoJiMyMjQ7bmcgYyYjNzg0NztuIHRoYW5oIHRvJiMyMjU7bjwvdGV4dD48cmVjdCBmaWxsPSIjRjFGMUYxIiBoZWlnaHQ9IjMyLjg0MzgiIHJ4PSIxMi41IiByeT0iMTIuNSIgc3R5bGU9InN0cm9rZTojMTgxODE4O3N0cm9rZS13aWR0aDowLjU7IiB3aWR0aD0iMjcyIiB4PSIyMSIgeT0iMTI4LjEwOTQiLz48dGV4dCBmaWxsPSIjMDAwMDAwIiBmb250LWZhbWlseT0ic2Fucy1zZXJpZiIgZm9udC1zaXplPSIxMiIgbGVuZ3RoQWRqdXN0PSJzcGFjaW5nIiB0ZXh0TGVuZ3RoPSIyNTIiIHg9IjMxIiB5PSIxNDkuNDUzMSI+Q2gmIzc4ODU7biBwaCYjNDMyOyYjNDE3O25nIHRoJiM3OTEzO2MgdGhhbmggdG8mIzIyNTtuIChPbmxpbmUgLyBDT0QpPC90ZXh0PjxsaW5lIHN0eWxlPSJzdHJva2U6IzAwMDAwMDtzdHJva2Utd2lkdGg6MS41OyIgeDE9IjE1IiB4Mj0iMTUiIHkxPSIxMSIgeTI9IjQ4OS40ODQ0Ii8+PHBvbHlnb24gZmlsbD0iI0YxRjFGMSIgcG9pbnRzPSI1ODIuNSwxODAuOTUzMSw2NjUsMTgwLjk1MzEsNjc3LDE5Mi45NTMxLDY2NSwyMDQuOTUzMSw1ODIuNSwyMDQuOTUzMSw1NzAuNSwxOTIuOTUzMSw1ODIuNSwxODAuOTUzMSIgc3R5bGU9InN0cm9rZTojMTgxODE4O3N0cm9rZS13aWR0aDowLjU7Ii8+PHRleHQgZmlsbD0iIzAwMDAwMCIgZm9udC1mYW1pbHk9InNhbnMtc2VyaWYiIGZvbnQtc2l6ZT0iMTEiIGxlbmd0aEFkanVzdD0ic3BhY2luZyIgdGV4dExlbmd0aD0iODIuNSIgeD0iNTgyLjUiIHk9IjE5Ny40NjQ4Ij5PbmxpbmUgUGF5bWVudD88L3RleHQ+PHRleHQgZmlsbD0iIzAwMDAwMCIgZm9udC1mYW1pbHk9InNhbnMtc2VyaWYiIGZvbnQtc2l6ZT0iMTEiIGxlbmd0aEFkanVzdD0ic3BhY2luZyIgdGV4dExlbmd0aD0iMTYuNSIgeD0iNTU0IiB5PSIxOTEuNTc4MSI+WWVzPC90ZXh0Pjx0ZXh0IGZpbGw9IiMwMDAwMDAiIGZvbnQtZmFtaWx5PSJzYW5zLXNlcmlmIiBmb250LXNpemU9IjExIiBsZW5ndGhBZGp1c3Q9InNwYWNpbmciIHRleHRMZW5ndGg9IjE2LjUiIHg9IjY3NyIgeT0iMTkxLjU3ODEiPkNPRDwvdGV4dD48cmVjdCBmaWxsPSIjRjFGMUYxIiBoZWlnaHQ9IjMyLjg0MzgiIHJ4PSIxMi41IiByeT0iMTIuNSIgc3R5bGU9InN0cm9rZTojMTgxODE4O3N0cm9rZS13aWR0aDowLjU7IiB3aWR0aD0iMTU4IiB4PSI0MDguNSIgeT0iMjE0Ljk1MzEiLz48dGV4dCBmaWxsPSIjMDAwMDAwIiBmb250LWZhbWlseT0ic2Fucy1zZXJpZiIgZm9udC1zaXplPSIxMiIgbGVuZ3RoQWRqdXN0PSJzcGFjaW5nIiB0ZXh0TGVuZ3RoPSIxMzgiIHg9IjQxOC41IiB5PSIyMzYuMjk2OSI+SyYjNzg3MTt0IG4mIzc4ODk7aSBjJiM3ODkzO25nIHRoYW5oIHRvJiMyMjU7bjwvdGV4dD48cG9seWdvbiBmaWxsPSIjRjFGMUYxIiBwb2ludHM9IjQyNywyNjcuNzk2OSw1NDgsMjY3Ljc5NjksNTYwLDI3OS43OTY5LDU0OCwyOTEuNzk2OSw0MjcsMjkxLjc5NjksNDE1LDI3OS43OTY5LDQyNywyNjcuNzk2OSIgc3R5bGU9InN0cm9rZTojMTgxODE4O3N0cm9rZS13aWR0aDowLjU7Ii8+PHRleHQgZmlsbD0iIzAwMDAwMCIgZm9udC1mYW1pbHk9InNhbnMtc2VyaWYiIGZvbnQtc2l6ZT0iMTEiIGxlbmd0aEFkanVzdD0ic3BhY2luZyIgdGV4dExlbmd0aD0iMTIxIiB4PSI0MjciIHk9IjI4NC4zMDg2Ij5UaGFuaCB0byYjMjI1O24gdGgmIzIyNDtuaCBjJiMyNDQ7bmc/PC90ZXh0Pjx0ZXh0IGZpbGw9IiMwMDAwMDAiIGZvbnQtZmFtaWx5PSJzYW5zLXNlcmlmIiBmb250LXNpemU9IjExIiBsZW5ndGhBZGp1c3Q9InNwYWNpbmciIHRleHRMZW5ndGg9IjE2LjUiIHg9IjM5OC41IiB5PSIyNzguNDIxOSI+WWVzPC90ZXh0Pjx0ZXh0IGZpbGw9IiMwMDAwMDAiIGZvbnQtZmFtaWx5PSJzYW5zLXNlcmlmIiBmb250LXNpemU9IjExIiBsZW5ndGhBZGp1c3Q9InNwYWNpbmciIHRleHRMZW5ndGg9IjExIiB4PSI1NjAiIHk9IjI3OC40MjE5Ij5ObzwvdGV4dD48cmVjdCBmaWxsPSIjRjFGMUYxIiBoZWlnaHQ9IjMyLjg0MzgiIHJ4PSIxMi41IiByeT0iMTIuNSIgc3R5bGU9InN0cm9rZTojMTgxODE4O3N0cm9rZS13aWR0aDowLjU7IiB3aWR0aD0iMjAwIiB4PSIzMDMiIHk9IjMwMS43OTY5Ii8+PHRleHQgZmlsbD0iIzAwMDAwMCIgZm9udC1mYW1pbHk9InNhbnMtc2VyaWYiIGZvbnQtc2l6ZT0iMTIiIGxlbmd0aEFkanVzdD0ic3BhY2luZyIgdGV4dExlbmd0aD0iMTgwIiB4PSIzMTMiIHk9IjMyMy4xNDA2Ij5YJiMyMjU7YyBuaCYjNzg1MztuIHRoYW5oIHRvJiMyMjU7biB0aCYjMjI0O25oIGMmIzI0NDtuZzwvdGV4dD48cmVjdCBmaWxsPSIjRjFGMUYxIiBoZWlnaHQ9IjMyLjg0MzgiIHJ4PSIxMi41IiByeT0iMTIuNSIgc3R5bGU9InN0cm9rZTojMTgxODE4O3N0cm9rZS13aWR0aDowLjU7IiB3aWR0aD0iOTgiIHg9IjUyMyIgeT0iMzAxLjc5NjkiLz48dGV4dCBmaWxsPSIjMDAwMDAwIiBmb250LWZhbWlseT0ic2Fucy1zZXJpZiIgZm9udC1zaXplPSIxMiIgbGVuZ3RoQWRqdXN0PSJzcGFjaW5nIiB0ZXh0TGVuZ3RoPSI3OCIgeD0iNTMzIiB5PSIzMjMuMTQwNiI+VGgmIzI0NDtuZyBiJiMyMjU7byBsJiM3ODk1O2k8L3RleHQ+PHBvbHlnb24gZmlsbD0iI0YxRjFGMSIgcG9pbnRzPSI0ODcuNSwzNDAuNjQwNiw0OTkuNSwzNTIuNjQwNiw0ODcuNSwzNjQuNjQwNiw0NzUuNSwzNTIuNjQwNiw0ODcuNSwzNDAuNjQwNiIgc3R5bGU9InN0cm9rZTojMTgxODE4O3N0cm9rZS13aWR0aDowLjU7Ii8+PHJlY3QgZmlsbD0iI0YxRjFGMSIgaGVpZ2h0PSIzMi44NDM4IiByeD0iMTIuNSIgcnk9IjEyLjUiIHN0eWxlPSJzdHJva2U6IzE4MTgxODtzdHJva2Utd2lkdGg6MC41OyIgd2lkdGg9IjIxOCIgeD0iNjUxIiB5PSIyMTQuOTUzMSIvPjx0ZXh0IGZpbGw9IiMwMDAwMDAiIGZvbnQtZmFtaWx5PSJzYW5zLXNlcmlmIiBmb250LXNpemU9IjEyIiBsZW5ndGhBZGp1c3Q9InNwYWNpbmciIHRleHRMZW5ndGg9IjE5OCIgeD0iNjYxIiB5PSIyMzYuMjk2OSI+R2hpIG5oJiM3ODUzO24gdGhhbmggdG8mIzIyNTtuIGtoaSBnaWFvIGgmIzIyNDtuZzwvdGV4dD48cG9seWdvbiBmaWxsPSIjRjFGMUYxIiBwb2ludHM9IjYyMy43NSwzNzAuNjQwNiw2MzUuNzUsMzgyLjY0MDYsNjIzLjc1LDM5NC42NDA2LDYxMS43NSwzODIuNjQwNiw2MjMuNzUsMzcwLjY0MDYiIHN0eWxlPSJzdHJva2U6IzE4MTgxODtzdHJva2Utd2lkdGg6MC41OyIvPjxyZWN0IGZpbGw9IiNGMUYxRjEiIGhlaWdodD0iMzIuODQzOCIgcng9IjEyLjUiIHJ5PSIxMi41IiBzdHlsZT0ic3Ryb2tlOiMxODE4MTg7c3Ryb2tlLXdpZHRoOjAuNTsiIHdpZHRoPSIxNzYiIHg9IjUzNS43NSIgeT0iNDE0LjY0MDYiLz48dGV4dCBmaWxsPSIjMDAwMDAwIiBmb250LWZhbWlseT0ic2Fucy1zZXJpZiIgZm9udC1zaXplPSIxMiIgbGVuZ3RoQWRqdXN0PSJzcGFjaW5nIiB0ZXh0TGVuZ3RoPSIxNTYiIHg9IjU0NS43NSIgeT0iNDM1Ljk4NDQiPkhpJiM3ODc1O24gdGgmIzc4ODM7IHgmIzIyNTtjIG5oJiM3ODUzO24gJiMyNzM7JiM0MTc7biBoJiMyMjQ7bmc8L3RleHQ+PGVsbGlwc2UgY3g9IjYyMy43NSIgY3k9IjQ3OC40ODQ0IiBmaWxsPSJub25lIiByeD0iMTEiIHJ5PSIxMSIgc3R5bGU9InN0cm9rZTojMjIyMjIyO3N0cm9rZS13aWR0aDoxOyIvPjxlbGxpcHNlIGN4PSI2MjMuNzUiIGN5PSI0NzguNDg0NCIgZmlsbD0iIzIyMjIyMiIgcng9IjYiIHJ5PSI2IiBzdHlsZT0ic3Ryb2tlOiMyMjIyMjI7c3Ryb2tlLXdpZHRoOjE7Ii8+PGxpbmUgc3R5bGU9InN0cm9rZTojMDAwMDAwO3N0cm9rZS13aWR0aDoxLjU7IiB4MT0iMjk3IiB4Mj0iMjk3IiB5MT0iMTEiIHkyPSI0ODkuNDg0NCIvPjxsaW5lIHN0eWxlPSJzdHJva2U6IzAwMDAwMDtzdHJva2Utd2lkdGg6MS41OyIgeDE9Ijg3MyIgeDI9Ijg3MyIgeTE9IjExIiB5Mj0iNDg5LjQ4NDQiLz48bGluZSBzdHlsZT0ic3Ryb2tlOiMxODE4MTg7c3Ryb2tlLXdpZHRoOjE7IiB4MT0iMTU3IiB4Mj0iMTU3IiB5MT0iNTUuMjY1NiIgeTI9Ijc1LjI2NTYiLz48cG9seWdvbiBmaWxsPSIjMTgxODE4IiBwb2ludHM9IjE1Myw2NS4yNjU2LDE1Nyw3NS4yNjU2LDE2MSw2NS4yNjU2LDE1Nyw2OS4yNjU2IiBzdHlsZT0ic3Ryb2tlOiMxODE4MTg7c3Ryb2tlLXdpZHRoOjE7Ii8+PGxpbmUgc3R5bGU9InN0cm9rZTojMTgxODE4O3N0cm9rZS13aWR0aDoxOyIgeDE9IjE1NyIgeDI9IjE1NyIgeTE9IjEwOC4xMDk0IiB5Mj0iMTI4LjEwOTQiLz48cG9seWdvbiBmaWxsPSIjMTgxODE4IiBwb2ludHM9IjE1MywxMTguMTA5NCwxNTcsMTI4LjEwOTQsMTYxLDExOC4xMDk0LDE1NywxMjIuMTA5NCIgc3R5bGU9InN0cm9rZTojMTgxODE4O3N0cm9rZS13aWR0aDoxOyIvPjxsaW5lIHN0eWxlPSJzdHJva2U6IzE4MTgxODtzdHJva2Utd2lkdGg6MTsiIHgxPSI0MTUiIHgyPSI0MDMiIHkxPSIyNzkuNzk2OSIgeTI9IjI3OS43OTY5Ii8+PGxpbmUgc3R5bGU9InN0cm9rZTojMTgxODE4O3N0cm9rZS13aWR0aDoxOyIgeDE9IjQwMyIgeDI9IjQwMyIgeTE9IjI3OS43OTY5IiB5Mj0iMzAxLjc5NjkiLz48cG9seWdvbiBmaWxsPSIjMTgxODE4IiBwb2ludHM9IjM5OSwyOTEuNzk2OSw0MDMsMzAxLjc5NjksNDA3LDI5MS43OTY5LDQwMywyOTUuNzk2OSIgc3R5bGU9InN0cm9rZTojMTgxODE4O3N0cm9rZS13aWR0aDoxOyIvPjxsaW5lIHN0eWxlPSJzdHJva2U6IzE4MTgxODtzdHJva2Utd2lkdGg6MTsiIHgxPSI1NjAiIHgyPSI1NzIiIHkxPSIyNzkuNzk2OSIgeTI9IjI3OS43OTY5Ii8+PGxpbmUgc3R5bGU9InN0cm9rZTojMTgxODE4O3N0cm9rZS13aWR0aDoxOyIgeDE9IjU3MiIgeDI9IjU3MiIgeTE9IjI3OS43OTY5IiB5Mj0iMzAxLjc5NjkiLz48cG9seWdvbiBmaWxsPSIjMTgxODE4IiBwb2ludHM9IjU2OCwyOTEuNzk2OSw1NzIsMzAxLjc5NjksNTc2LDI5MS43OTY5LDU3MiwyOTUuNzk2OSIgc3R5bGU9InN0cm9rZTojMTgxODE4O3N0cm9rZS13aWR0aDoxOyIvPjxsaW5lIHN0eWxlPSJzdHJva2U6IzE4MTgxODtzdHJva2Utd2lkdGg6MTsiIHgxPSI0MDMiIHgyPSI0MDMiIHkxPSIzMzQuNjQwNiIgeTI9IjM1Mi42NDA2Ii8+PGxpbmUgc3R5bGU9InN0cm9rZTojMTgxODE4O3N0cm9rZS13aWR0aDoxOyIgeDE9IjQwMyIgeDI9IjQ3NS41IiB5MT0iMzUyLjY0MDYiIHkyPSIzNTIuNjQwNiIvPjxwb2x5Z29uIGZpbGw9IiMxODE4MTgiIHBvaW50cz0iNDY1LjUsMzQ4LjY0MDYsNDc1LjUsMzUyLjY0MDYsNDY1LjUsMzU2LjY0MDYsNDY5LjUsMzUyLjY0MDYiIHN0eWxlPSJzdHJva2U6IzE4MTgxODtzdHJva2Utd2lkdGg6MTsiLz48bGluZSBzdHlsZT0ic3Ryb2tlOiMxODE4MTg7c3Ryb2tlLXdpZHRoOjE7IiB4MT0iNTcyIiB4Mj0iNTcyIiB5MT0iMzM0LjY0MDYiIHkyPSIzNTIuNjQwNiIvPjxsaW5lIHN0eWxlPSJzdHJva2U6IzE4MTgxODtzdHJva2Utd2lkdGg6MTsiIHgxPSI1NzIiIHgyPSI0OTkuNSIgeTE9IjM1Mi42NDA2IiB5Mj0iMzUyLjY0MDYiLz48cG9seWdvbiBmaWxsPSIjMTgxODE4IiBwb2ludHM9IjUwOS41LDM0OC42NDA2LDQ5OS41LDM1Mi42NDA2LDUwOS41LDM1Ni42NDA2LDUwNS41LDM1Mi42NDA2IiBzdHlsZT0ic3Ryb2tlOiMxODE4MTg7c3Ryb2tlLXdpZHRoOjE7Ii8+PGxpbmUgc3R5bGU9InN0cm9rZTojMTgxODE4O3N0cm9rZS13aWR0aDoxOyIgeDE9IjQ4Ny41IiB4Mj0iNDg3LjUiIHkxPSIyNDcuNzk2OSIgeTI9IjI2Ny43OTY5Ii8+PHBvbHlnb24gZmlsbD0iIzE4MTgxOCIgcG9pbnRzPSI0ODMuNSwyNTcuNzk2OSw0ODcuNSwyNjcuNzk2OSw0OTEuNSwyNTcuNzk2OSw0ODcuNSwyNjEuNzk2OSIgc3R5bGU9InN0cm9rZTojMTgxODE4O3N0cm9rZS13aWR0aDoxOyIvPjxsaW5lIHN0eWxlPSJzdHJva2U6IzE4MTgxODtzdHJva2Utd2lkdGg6MTsiIHgxPSI1NzAuNSIgeDI9IjQ4Ny41IiB5MT0iMTkyLjk1MzEiIHkyPSIxOTIuOTUzMSIvPjxsaW5lIHN0eWxlPSJzdHJva2U6IzE4MTgxODtzdHJva2Utd2lkdGg6MTsiIHgxPSI0ODcuNSIgeDI9IjQ4Ny41IiB5MT0iMTkyLjk1MzEiIHkyPSIyMTQuOTUzMSIvPjxwb2x5Z29uIGZpbGw9IiMxODE4MTgiIHBvaW50cz0iNDgzLjUsMjA0Ljk1MzEsNDg3LjUsMjE0Ljk1MzEsNDkxLjUsMjA0Ljk1MzEsNDg3LjUsMjA4Ljk1MzEiIHN0eWxlPSJzdHJva2U6IzE4MTgxODtzdHJva2Utd2lkdGg6MTsiLz48bGluZSBzdHlsZT0ic3Ryb2tlOiMxODE4MTg7c3Ryb2tlLXdpZHRoOjE7IiB4MT0iNjc3IiB4Mj0iNzYwIiB5MT0iMTkyLjk1MzEiIHkyPSIxOTIuOTUzMSIvPjxsaW5lIHN0eWxlPSJzdHJva2U6IzE4MTgxODtzdHJva2Utd2lkdGg6MTsiIHgxPSI3NjAiIHgyPSI3NjAiIHkxPSIxOTIuOTUzMSIgeTI9IjIxNC45NTMxIi8+PHBvbHlnb24gZmlsbD0iIzE4MTgxOCIgcG9pbnRzPSI3NTYsMjA0Ljk1MzEsNzYwLDIxNC45NTMxLDc2NCwyMDQuOTUzMSw3NjAsMjA4Ljk1MzEiIHN0eWxlPSJzdHJva2U6IzE4MTgxODtzdHJva2Utd2lkdGg6MTsiLz48bGluZSBzdHlsZT0ic3Ryb2tlOiMxODE4MTg7c3Ryb2tlLXdpZHRoOjE7IiB4MT0iNDg3LjUiIHgyPSI0ODcuNSIgeTE9IjM2NC42NDA2IiB5Mj0iMzgyLjY0MDYiLz48bGluZSBzdHlsZT0ic3Ryb2tlOiMxODE4MTg7c3Ryb2tlLXdpZHRoOjE7IiB4MT0iNDg3LjUiIHgyPSI2MTEuNzUiIHkxPSIzODIuNjQwNiIgeTI9IjM4Mi42NDA2Ii8+PHBvbHlnb24gZmlsbD0iIzE4MTgxOCIgcG9pbnRzPSI2MDEuNzUsMzc4LjY0MDYsNjExLjc1LDM4Mi42NDA2LDYwMS43NSwzODYuNjQwNiw2MDUuNzUsMzgyLjY0MDYiIHN0eWxlPSJzdHJva2U6IzE4MTgxODtzdHJva2Utd2lkdGg6MTsiLz48bGluZSBzdHlsZT0ic3Ryb2tlOiMxODE4MTg7c3Ryb2tlLXdpZHRoOjE7IiB4MT0iNzYwIiB4Mj0iNzYwIiB5MT0iMjQ3Ljc5NjkiIHkyPSIzODIuNjQwNiIvPjxsaW5lIHN0eWxlPSJzdHJva2U6IzE4MTgxODtzdHJva2Utd2lkdGg6MTsiIHgxPSI3NjAiIHgyPSI2MzUuNzUiIHkxPSIzODIuNjQwNiIgeTI9IjM4Mi42NDA2Ii8+PHBvbHlnb24gZmlsbD0iIzE4MTgxOCIgcG9pbnRzPSI2NDUuNzUsMzc4LjY0MDYsNjM1Ljc1LDM4Mi42NDA2LDY0NS43NSwzODYuNjQwNiw2NDEuNzUsMzgyLjY0MDYiIHN0eWxlPSJzdHJva2U6IzE4MTgxODtzdHJva2Utd2lkdGg6MTsiLz48bGluZSBzdHlsZT0ic3Ryb2tlOiMxODE4MTg7c3Ryb2tlLXdpZHRoOjE7IiB4MT0iNjIzLjc1IiB4Mj0iNjIzLjc1IiB5MT0iMzk0LjY0MDYiIHkyPSI0MTQuNjQwNiIvPjxwb2x5Z29uIGZpbGw9IiMxODE4MTgiIHBvaW50cz0iNjE5Ljc1LDQwNC42NDA2LDYyMy43NSw0MTQuNjQwNiw2MjcuNzUsNDA0LjY0MDYsNjIzLjc1LDQwOC42NDA2IiBzdHlsZT0ic3Ryb2tlOiMxODE4MTg7c3Ryb2tlLXdpZHRoOjE7Ii8+PGxpbmUgc3R5bGU9InN0cm9rZTojMTgxODE4O3N0cm9rZS13aWR0aDoxOyIgeDE9IjYyMy43NSIgeDI9IjYyMy43NSIgeTE9IjQ0Ny40ODQ0IiB5Mj0iNDY3LjQ4NDQiLz48cG9seWdvbiBmaWxsPSIjMTgxODE4IiBwb2ludHM9IjYxOS43NSw0NTcuNDg0NCw2MjMuNzUsNDY3LjQ4NDQsNjI3Ljc1LDQ1Ny40ODQ0LDYyMy43NSw0NjEuNDg0NCIgc3R5bGU9InN0cm9rZTojMTgxODE4O3N0cm9rZS13aWR0aDoxOyIvPjxsaW5lIHN0eWxlPSJzdHJva2U6IzE4MTgxODtzdHJva2Utd2lkdGg6MTsiIHgxPSIxNTciIHgyPSIxNTciIHkxPSIxNjAuOTUzMSIgeTI9IjE2NS45NTMxIi8+PGxpbmUgc3R5bGU9InN0cm9rZTojMTgxODE4O3N0cm9rZS13aWR0aDoxOyIgeDE9IjE1NyIgeDI9IjYyMy43NSIgeTE9IjE2NS45NTMxIiB5Mj0iMTY1Ljk1MzEiLz48bGluZSBzdHlsZT0ic3Ryb2tlOiMxODE4MTg7c3Ryb2tlLXdpZHRoOjE7IiB4MT0iNjIzLjc1IiB4Mj0iNjIzLjc1IiB5MT0iMTY1Ljk1MzEiIHkyPSIxODAuOTUzMSIvPjxwb2x5Z29uIGZpbGw9IiMxODE4MTgiIHBvaW50cz0iNjE5Ljc1LDE3MC45NTMxLDYyMy43NSwxODAuOTUzMSw2MjcuNzUsMTcwLjk1MzEsNjIzLjc1LDE3NC45NTMxIiBzdHlsZT0ic3Ryb2tlOiMxODE4MTg7c3Ryb2tlLXdpZHRoOjE7Ii8+PHRleHQgZmlsbD0iIzAwMDAwMCIgZm9udC1mYW1pbHk9InNhbnMtc2VyaWYiIGZvbnQtc2l6ZT0iMTgiIGxlbmd0aEFkanVzdD0ic3BhY2luZyIgdGV4dExlbmd0aD0iNzIiIHg9IjEyMCIgeT0iMjguMDE1NiI+Q3VzdG9tZXI8L3RleHQ+PHRleHQgZmlsbD0iIzAwMDAwMCIgZm9udC1mYW1pbHk9InNhbnMtc2VyaWYiIGZvbnQtc2l6ZT0iMTgiIGxlbmd0aEFkanVzdD0ic3BhY2luZyIgdGV4dExlbmd0aD0iNTQiIHg9IjU1OCIgeT0iMjguMDE1NiI+U3lzdGVtPC90ZXh0PjwhLS1TUkM9W1JMNF9JeUdtNURfcEFUdnVkVHBSbVE2MldrMFRVOEVFalVSd1drdEJTT2RXR0pUN1NSWDFORXFhM2VBM0twQ3VIRXZ4djlrT2o3QmFuM01fbC0gLU5EaHpMTVpQeXJKQWJZdkxjUU94RUYxOXlSeE9UMFRlTmdnMXFfSWsxbmU4R2pCR1RQSmxRNGhTVmRiWHZyOWN0Q1lSMVA0Z3I4MHU3YTQtRmFlb256ZG9qRDZ6UTlYT3hTNVFpNnF4d0NGNUl4Wk1OTjJLQzgzcnJfUFM2U2NPWlZCdnY2WUFZMFczMVAxeDV3TDBNZVJJVkxGc3J5dU9OallrMXFGTmxVd1Zpb084amhuTTdvUGR5YlNxbjA3MWJFbWNyQ3l6WXVEMnJNQjJINk11QlhPekhfNlRfdXZ5aEtTWG5vZW9ES2ZRVTI2VmtRUFpqMFV3WVJqN21jVnlKa1ZtMV0tLT48L2c+PC9zdmc+;" vertex="1" parent="1">
            <mxGeometry x="4290" y="-954.75" width="771.77" height="432.5" as="geometry" />
          </mxCell>
        </UserObject>
        <UserObject label="" plantUmlData="{&#xa;  &quot;data&quot;: &quot;@startuml\n|Customer|\nstart\n:Đăng nhập hệ thống;\n:Chọn \&quot;Theo dõi đơn hàng\&quot;;\n\n|System|\n:Lấy thông tin vận chuyển;\n:Hiển thị trạng thái: (Đang xử lý / Đang giao / Đã giao);\n\n|Customer|\n:Xem trạng thái đơn hàng;\nstop\n@enduml\n&quot;,&#xa;  &quot;format&quot;: &quot;svg&quot;&#xa;}" id="o4Ry2LVALnNqbZM6HUpt-7">
          <mxCell style="shape=image;noLabel=1;verticalAlign=top;aspect=fixed;imageAspect=0;image=data:image/svg+xml,PHN2ZyB4bWxucz0iaHR0cDovL3d3dy53My5vcmcvMjAwMC9zdmciIHhtbG5zOnhsaW5rPSJodHRwOi8vd3d3LnczLm9yZy8xOTk5L3hsaW5rIiBjb250ZW50U3R5bGVUeXBlPSJ0ZXh0L2NzcyIgZGF0YS1kaWFncmFtLXR5cGU9IkFDVElWSVRZIiBoZWlnaHQ9IjM3M3B4IiBwcmVzZXJ2ZUFzcGVjdFJhdGlvPSJub25lIiBzdHlsZT0id2lkdGg6NTcwcHg7aGVpZ2h0OjM3M3B4O2JhY2tncm91bmQ6I0ZGRkZGRjsiIHZlcnNpb249IjEuMSIgdmlld0JveD0iMCAwIDU3MCAzNzMiIHdpZHRoPSI1NzBweCIgem9vbUFuZFBhbj0ibWFnbmlmeSI+PGRlZnMvPjxnPjxyZWN0IGZpbGw9Im5vbmUiIGhlaWdodD0iMTkuMjY1NiIgc3R5bGU9InN0cm9rZTpub25lO3N0cm9rZS13aWR0aDoxOyIgd2lkdGg9IjUzNy41IiB4PSIxNSIgeT0iMTEiLz48ZWxsaXBzZSBjeD0iMTAzIiBjeT0iNDUuMjY1NiIgZmlsbD0iIzIyMjIyMiIgcng9IjEwIiByeT0iMTAiIHN0eWxlPSJzdHJva2U6IzIyMjIyMjtzdHJva2Utd2lkdGg6MTsiLz48cmVjdCBmaWxsPSIjRjFGMUYxIiBoZWlnaHQ9IjMyLjg0MzgiIHJ4PSIxMi41IiByeT0iMTIuNSIgc3R5bGU9InN0cm9rZTojMTgxODE4O3N0cm9rZS13aWR0aDowLjU7IiB3aWR0aD0iMTI4IiB4PSIzOSIgeT0iNzUuMjY1NiIvPjx0ZXh0IGZpbGw9IiMwMDAwMDAiIGZvbnQtZmFtaWx5PSJzYW5zLXNlcmlmIiBmb250LXNpemU9IjEyIiBsZW5ndGhBZGp1c3Q9InNwYWNpbmciIHRleHRMZW5ndGg9IjEwOCIgeD0iNDkiIHk9Ijk2LjYwOTQiPiYjMjcyOyYjMjU5O25nIG5oJiM3ODUzO3AgaCYjNzg3OTsgdGgmIzc4ODk7bmc8L3RleHQ+PHJlY3QgZmlsbD0iI0YxRjFGMSIgaGVpZ2h0PSIzMi44NDM4IiByeD0iMTIuNSIgcnk9IjEyLjUiIHN0eWxlPSJzdHJva2U6IzE4MTgxODtzdHJva2Utd2lkdGg6MC41OyIgd2lkdGg9IjE2NCIgeD0iMjEiIHk9IjEyOC4xMDk0Ii8+PHRleHQgZmlsbD0iIzAwMDAwMCIgZm9udC1mYW1pbHk9InNhbnMtc2VyaWYiIGZvbnQtc2l6ZT0iMTIiIGxlbmd0aEFkanVzdD0ic3BhY2luZyIgdGV4dExlbmd0aD0iMTQ0IiB4PSIzMSIgeT0iMTQ5LjQ1MzEiPkNoJiM3ODg1O24gIlRoZW8gZCYjMjQ1O2kgJiMyNzM7JiM0MTc7biBoJiMyMjQ7bmciPC90ZXh0PjxyZWN0IGZpbGw9IiNGMUYxRjEiIGhlaWdodD0iMzIuODQzOCIgcng9IjEyLjUiIHJ5PSIxMi41IiBzdHlsZT0ic3Ryb2tlOiMxODE4MTg7c3Ryb2tlLXdpZHRoOjAuNTsiIHdpZHRoPSIxNTgiIHg9IjI0IiB5PSIyODYuNjQwNiIvPjx0ZXh0IGZpbGw9IiMwMDAwMDAiIGZvbnQtZmFtaWx5PSJzYW5zLXNlcmlmIiBmb250LXNpemU9IjEyIiBsZW5ndGhBZGp1c3Q9InNwYWNpbmciIHRleHRMZW5ndGg9IjEzOCIgeD0iMzQiIHk9IjMwNy45ODQ0Ij5YZW0gdHImIzc4NDE7bmcgdGgmIzIyNTtpICYjMjczOyYjNDE3O24gaCYjMjI0O25nPC90ZXh0PjxlbGxpcHNlIGN4PSIxMDMiIGN5PSIzNTAuNDg0NCIgZmlsbD0ibm9uZSIgcng9IjExIiByeT0iMTEiIHN0eWxlPSJzdHJva2U6IzIyMjIyMjtzdHJva2Utd2lkdGg6MTsiLz48ZWxsaXBzZSBjeD0iMTAzIiBjeT0iMzUwLjQ4NDQiIGZpbGw9IiMyMjIyMjIiIHJ4PSI2IiByeT0iNiIgc3R5bGU9InN0cm9rZTojMjIyMjIyO3N0cm9rZS13aWR0aDoxOyIvPjxsaW5lIHN0eWxlPSJzdHJva2U6IzAwMDAwMDtzdHJva2Utd2lkdGg6MS41OyIgeDE9IjE1IiB4Mj0iMTUiIHkxPSIxMSIgeTI9IjM2MS40ODQ0Ii8+PHJlY3QgZmlsbD0iI0YxRjFGMSIgaGVpZ2h0PSIzMi44NDM4IiByeD0iMTIuNSIgcnk9IjEyLjUiIHN0eWxlPSJzdHJva2U6IzE4MTgxODtzdHJva2Utd2lkdGg6MC41OyIgd2lkdGg9IjE2NCIgeD0iMjg4IiB5PSIxODAuOTUzMSIvPjx0ZXh0IGZpbGw9IiMwMDAwMDAiIGZvbnQtZmFtaWx5PSJzYW5zLXNlcmlmIiBmb250LXNpemU9IjEyIiBsZW5ndGhBZGp1c3Q9InNwYWNpbmciIHRleHRMZW5ndGg9IjE0NCIgeD0iMjk4IiB5PSIyMDIuMjk2OSI+TCYjNzg0NTt5IHRoJiMyNDQ7bmcgdGluIHYmIzc4NTM7biBjaHV5JiM3ODc1O248L3RleHQ+PHJlY3QgZmlsbD0iI0YxRjFGMSIgaGVpZ2h0PSIzMi44NDM4IiByeD0iMTIuNSIgcnk9IjEyLjUiIHN0eWxlPSJzdHJva2U6IzE4MTgxODtzdHJva2Utd2lkdGg6MC41OyIgd2lkdGg9IjM1MCIgeD0iMTk1IiB5PSIyMzMuNzk2OSIvPjx0ZXh0IGZpbGw9IiMwMDAwMDAiIGZvbnQtZmFtaWx5PSJzYW5zLXNlcmlmIiBmb250LXNpemU9IjEyIiBsZW5ndGhBZGp1c3Q9InNwYWNpbmciIHRleHRMZW5ndGg9IjMzMCIgeD0iMjA1IiB5PSIyNTUuMTQwNiI+SGkmIzc4NzU7biB0aCYjNzg4MzsgdHImIzc4NDE7bmcgdGgmIzIyNTtpOiAoJiMyNzI7YW5nIHgmIzc5MTc7IGwmIzI1MzsgLyAmIzI3MjthbmcgZ2lhbyAvICYjMjcyOyYjMjI3OyBnaWFvKTwvdGV4dD48bGluZSBzdHlsZT0ic3Ryb2tlOiMwMDAwMDA7c3Ryb2tlLXdpZHRoOjEuNTsiIHgxPSIxODkiIHgyPSIxODkiIHkxPSIxMSIgeTI9IjM2MS40ODQ0Ii8+PGxpbmUgc3R5bGU9InN0cm9rZTojMDAwMDAwO3N0cm9rZS13aWR0aDoxLjU7IiB4MT0iNTQ5IiB4Mj0iNTQ5IiB5MT0iMTEiIHkyPSIzNjEuNDg0NCIvPjxsaW5lIHN0eWxlPSJzdHJva2U6IzE4MTgxODtzdHJva2Utd2lkdGg6MTsiIHgxPSIxMDMiIHgyPSIxMDMiIHkxPSI1NS4yNjU2IiB5Mj0iNzUuMjY1NiIvPjxwb2x5Z29uIGZpbGw9IiMxODE4MTgiIHBvaW50cz0iOTksNjUuMjY1NiwxMDMsNzUuMjY1NiwxMDcsNjUuMjY1NiwxMDMsNjkuMjY1NiIgc3R5bGU9InN0cm9rZTojMTgxODE4O3N0cm9rZS13aWR0aDoxOyIvPjxsaW5lIHN0eWxlPSJzdHJva2U6IzE4MTgxODtzdHJva2Utd2lkdGg6MTsiIHgxPSIxMDMiIHgyPSIxMDMiIHkxPSIxMDguMTA5NCIgeTI9IjEyOC4xMDk0Ii8+PHBvbHlnb24gZmlsbD0iIzE4MTgxOCIgcG9pbnRzPSI5OSwxMTguMTA5NCwxMDMsMTI4LjEwOTQsMTA3LDExOC4xMDk0LDEwMywxMjIuMTA5NCIgc3R5bGU9InN0cm9rZTojMTgxODE4O3N0cm9rZS13aWR0aDoxOyIvPjxsaW5lIHN0eWxlPSJzdHJva2U6IzE4MTgxODtzdHJva2Utd2lkdGg6MTsiIHgxPSIxMDMiIHgyPSIxMDMiIHkxPSIzMTkuNDg0NCIgeTI9IjMzOS40ODQ0Ii8+PHBvbHlnb24gZmlsbD0iIzE4MTgxOCIgcG9pbnRzPSI5OSwzMjkuNDg0NCwxMDMsMzM5LjQ4NDQsMTA3LDMyOS40ODQ0LDEwMywzMzMuNDg0NCIgc3R5bGU9InN0cm9rZTojMTgxODE4O3N0cm9rZS13aWR0aDoxOyIvPjxsaW5lIHN0eWxlPSJzdHJva2U6IzE4MTgxODtzdHJva2Utd2lkdGg6MTsiIHgxPSIzNzAiIHgyPSIzNzAiIHkxPSIyMTMuNzk2OSIgeTI9IjIzMy43OTY5Ii8+PHBvbHlnb24gZmlsbD0iIzE4MTgxOCIgcG9pbnRzPSIzNjYsMjIzLjc5NjksMzcwLDIzMy43OTY5LDM3NCwyMjMuNzk2OSwzNzAsMjI3Ljc5NjkiIHN0eWxlPSJzdHJva2U6IzE4MTgxODtzdHJva2Utd2lkdGg6MTsiLz48bGluZSBzdHlsZT0ic3Ryb2tlOiMxODE4MTg7c3Ryb2tlLXdpZHRoOjE7IiB4MT0iMTAzIiB4Mj0iMTAzIiB5MT0iMTYwLjk1MzEiIHkyPSIxNjUuOTUzMSIvPjxsaW5lIHN0eWxlPSJzdHJva2U6IzE4MTgxODtzdHJva2Utd2lkdGg6MTsiIHgxPSIxMDMiIHgyPSIzNzAiIHkxPSIxNjUuOTUzMSIgeTI9IjE2NS45NTMxIi8+PGxpbmUgc3R5bGU9InN0cm9rZTojMTgxODE4O3N0cm9rZS13aWR0aDoxOyIgeDE9IjM3MCIgeDI9IjM3MCIgeTE9IjE2NS45NTMxIiB5Mj0iMTgwLjk1MzEiLz48cG9seWdvbiBmaWxsPSIjMTgxODE4IiBwb2ludHM9IjM2NiwxNzAuOTUzMSwzNzAsMTgwLjk1MzEsMzc0LDE3MC45NTMxLDM3MCwxNzQuOTUzMSIgc3R5bGU9InN0cm9rZTojMTgxODE4O3N0cm9rZS13aWR0aDoxOyIvPjxsaW5lIHN0eWxlPSJzdHJva2U6IzE4MTgxODtzdHJva2Utd2lkdGg6MTsiIHgxPSIzNzAiIHgyPSIzNzAiIHkxPSIyNjYuNjQwNiIgeTI9IjI3MS42NDA2Ii8+PGxpbmUgc3R5bGU9InN0cm9rZTojMTgxODE4O3N0cm9rZS13aWR0aDoxOyIgeDE9IjM3MCIgeDI9IjEwMyIgeTE9IjI3MS42NDA2IiB5Mj0iMjcxLjY0MDYiLz48bGluZSBzdHlsZT0ic3Ryb2tlOiMxODE4MTg7c3Ryb2tlLXdpZHRoOjE7IiB4MT0iMTAzIiB4Mj0iMTAzIiB5MT0iMjcxLjY0MDYiIHkyPSIyODYuNjQwNiIvPjxwb2x5Z29uIGZpbGw9IiMxODE4MTgiIHBvaW50cz0iOTksMjc2LjY0MDYsMTAzLDI4Ni42NDA2LDEwNywyNzYuNjQwNiwxMDMsMjgwLjY0MDYiIHN0eWxlPSJzdHJva2U6IzE4MTgxODtzdHJva2Utd2lkdGg6MTsiLz48dGV4dCBmaWxsPSIjMDAwMDAwIiBmb250LWZhbWlseT0ic2Fucy1zZXJpZiIgZm9udC1zaXplPSIxOCIgbGVuZ3RoQWRqdXN0PSJzcGFjaW5nIiB0ZXh0TGVuZ3RoPSI3MiIgeD0iNjYiIHk9IjI4LjAxNTYiPkN1c3RvbWVyPC90ZXh0Pjx0ZXh0IGZpbGw9IiMwMDAwMDAiIGZvbnQtZmFtaWx5PSJzYW5zLXNlcmlmIiBmb250LXNpemU9IjE4IiBsZW5ndGhBZGp1c3Q9InNwYWNpbmciIHRleHRMZW5ndGg9IjU0IiB4PSIzNDIiIHk9IjI4LjAxNTYiPlN5c3RlbTwvdGV4dD48IS0tU1JDPVtndDRrQkl4OXBxcWpnazRnQmFhaUFrNm9FWkJYSTdEVWthOVVuaURUUW1pS0NYeGtSYlNlMFA4Snl6QWprUW9TV1FwVUYwTWJhOHBLVjhNS21yaXA1T3ZDRkJPbUpvN1p5OEF5VDJMaEJnd1F1Q2hZYWpKUzZZdWhkdVV4YmJPMmpIeFUwWklqOTNERmVHbmVPOXYyU2FQZnZTRlRwTmIwbXBtb0dHb213VHFBOUtLRlRvcTRnU211bDMzSklhN1pvOEg0OEFfWXVVd3IyWmM3em9oZUFxMDRxWkNKeXk2U211bDFSNHNHZEdXX000TWF2ZzhRWFVuMFF3MFZ5bWkwXS0tPjwvZz48L3N2Zz4=;" vertex="1" parent="1">
            <mxGeometry x="5230" y="-940" width="570" height="373" as="geometry" />
          </mxCell>
        </UserObject>
        <UserObject label="" plantUmlData="{&#xa;  &quot;data&quot;: &quot;@startuml\n|User|\nstart\n:Nhập Username &amp; Password;\n\n|System|\n:Kiểm tra thông tin đăng nhập;\nif (Đúng?) then (Yes)\n  :Chuyển đến trang chủ;\nelse (No)\n  :Thông báo sai thông tin;\nendif\nstop\n@enduml&quot;,&#xa;  &quot;format&quot;: &quot;svg&quot;&#xa;}" id="o4Ry2LVALnNqbZM6HUpt-8">
          <mxCell style="shape=image;noLabel=1;verticalAlign=top;aspect=fixed;imageAspect=0;image=data:image/svg+xml,PHN2ZyB4bWxucz0iaHR0cDovL3d3dy53My5vcmcvMjAwMC9zdmciIHhtbG5zOnhsaW5rPSJodHRwOi8vd3d3LnczLm9yZy8xOTk5L3hsaW5rIiBjb250ZW50U3R5bGVUeXBlPSJ0ZXh0L2NzcyIgZGF0YS1kaWFncmFtLXR5cGU9IkFDVElWSVRZIiBoZWlnaHQ9IjMzMXB4IiBwcmVzZXJ2ZUFzcGVjdFJhdGlvPSJub25lIiBzdHlsZT0id2lkdGg6NTM4cHg7aGVpZ2h0OjMzMXB4O2JhY2tncm91bmQ6I0ZGRkZGRjsiIHZlcnNpb249IjEuMSIgdmlld0JveD0iMCAwIDUzOCAzMzEiIHdpZHRoPSI1MzhweCIgem9vbUFuZFBhbj0ibWFnbmlmeSI+PGRlZnMvPjxnPjxyZWN0IGZpbGw9Im5vbmUiIGhlaWdodD0iMTkuMjY1NiIgc3R5bGU9InN0cm9rZTpub25lO3N0cm9rZS13aWR0aDoxOyIgd2lkdGg9IjUwNS41IiB4PSIxNSIgeT0iMTEiLz48ZWxsaXBzZSBjeD0iMTAzIiBjeT0iNDUuMjY1NiIgZmlsbD0iIzIyMjIyMiIgcng9IjEwIiByeT0iMTAiIHN0eWxlPSJzdHJva2U6IzIyMjIyMjtzdHJva2Utd2lkdGg6MTsiLz48cmVjdCBmaWxsPSIjRjFGMUYxIiBoZWlnaHQ9IjMyLjg0MzgiIHJ4PSIxMi41IiByeT0iMTIuNSIgc3R5bGU9InN0cm9rZTojMTgxODE4O3N0cm9rZS13aWR0aDowLjU7IiB3aWR0aD0iMTY0IiB4PSIyMSIgeT0iNzUuMjY1NiIvPjx0ZXh0IGZpbGw9IiMwMDAwMDAiIGZvbnQtZmFtaWx5PSJzYW5zLXNlcmlmIiBmb250LXNpemU9IjEyIiBsZW5ndGhBZGp1c3Q9InNwYWNpbmciIHRleHRMZW5ndGg9IjE0NCIgeD0iMzEiIHk9Ijk2LjYwOTQiPk5oJiM3ODUzO3AgVXNlcm5hbWUgJmFtcDsgUGFzc3dvcmQ8L3RleHQ+PGxpbmUgc3R5bGU9InN0cm9rZTojMDAwMDAwO3N0cm9rZS13aWR0aDoxLjU7IiB4MT0iMTUiIHgyPSIxNSIgeTE9IjExIiB5Mj0iMzE5Ljc5NjkiLz48cmVjdCBmaWxsPSIjRjFGMUYxIiBoZWlnaHQ9IjMyLjg0MzgiIHJ4PSIxMi41IiByeT0iMTIuNSIgc3R5bGU9InN0cm9rZTojMTgxODE4O3N0cm9rZS13aWR0aDowLjU7IiB3aWR0aD0iMTg4IiB4PSIyNTUuNSIgeT0iMTI4LjEwOTQiLz48dGV4dCBmaWxsPSIjMDAwMDAwIiBmb250LWZhbWlseT0ic2Fucy1zZXJpZiIgZm9udC1zaXplPSIxMiIgbGVuZ3RoQWRqdXN0PSJzcGFjaW5nIiB0ZXh0TGVuZ3RoPSIxNjgiIHg9IjI2NS41IiB5PSIxNDkuNDUzMSI+S2kmIzc4NzU7bSB0cmEgdGgmIzI0NDtuZyB0aW4gJiMyNzM7JiMyNTk7bmcgbmgmIzc4NTM7cDwvdGV4dD48cG9seWdvbiBmaWxsPSIjRjFGMUYxIiBwb2ludHM9IjMzNS43NSwxODAuOTUzMSwzNjMuMjUsMTgwLjk1MzEsMzc1LjI1LDE5Mi45NTMxLDM2My4yNSwyMDQuOTUzMSwzMzUuNzUsMjA0Ljk1MzEsMzIzLjc1LDE5Mi45NTMxLDMzNS43NSwxODAuOTUzMSIgc3R5bGU9InN0cm9rZTojMTgxODE4O3N0cm9rZS13aWR0aDowLjU7Ii8+PHRleHQgZmlsbD0iIzAwMDAwMCIgZm9udC1mYW1pbHk9InNhbnMtc2VyaWYiIGZvbnQtc2l6ZT0iMTEiIGxlbmd0aEFkanVzdD0ic3BhY2luZyIgdGV4dExlbmd0aD0iMjcuNSIgeD0iMzM1Ljc1IiB5PSIxOTcuNDY0OCI+JiMyNzI7JiMyNTA7bmc/PC90ZXh0Pjx0ZXh0IGZpbGw9IiMwMDAwMDAiIGZvbnQtZmFtaWx5PSJzYW5zLXNlcmlmIiBmb250LXNpemU9IjExIiBsZW5ndGhBZGp1c3Q9InNwYWNpbmciIHRleHRMZW5ndGg9IjE2LjUiIHg9IjMwNy4yNSIgeT0iMTkxLjU3ODEiPlllczwvdGV4dD48dGV4dCBmaWxsPSIjMDAwMDAwIiBmb250LWZhbWlseT0ic2Fucy1zZXJpZiIgZm9udC1zaXplPSIxMSIgbGVuZ3RoQWRqdXN0PSJzcGFjaW5nIiB0ZXh0TGVuZ3RoPSIxMSIgeD0iMzc1LjI1IiB5PSIxOTEuNTc4MSI+Tm88L3RleHQ+PHJlY3QgZmlsbD0iI0YxRjFGMSIgaGVpZ2h0PSIzMi44NDM4IiByeD0iMTIuNSIgcnk9IjEyLjUiIHN0eWxlPSJzdHJva2U6IzE4MTgxODtzdHJva2Utd2lkdGg6MC41OyIgd2lkdGg9IjE0MCIgeD0iMTk1IiB5PSIyMTQuOTUzMSIvPjx0ZXh0IGZpbGw9IiMwMDAwMDAiIGZvbnQtZmFtaWx5PSJzYW5zLXNlcmlmIiBmb250LXNpemU9IjEyIiBsZW5ndGhBZGp1c3Q9InNwYWNpbmciIHRleHRMZW5ndGg9IjEyMCIgeD0iMjA1IiB5PSIyMzYuMjk2OSI+Q2h1eSYjNzg3NTtuICYjMjczOyYjNzg3MTtuIHRyYW5nIGNoJiM3OTExOzwvdGV4dD48cmVjdCBmaWxsPSIjRjFGMUYxIiBoZWlnaHQ9IjMyLjg0MzgiIHJ4PSIxMi41IiByeT0iMTIuNSIgc3R5bGU9InN0cm9rZTojMTgxODE4O3N0cm9rZS13aWR0aDowLjU7IiB3aWR0aD0iMTU4IiB4PSIzNTUiIHk9IjIxNC45NTMxIi8+PHRleHQgZmlsbD0iIzAwMDAwMCIgZm9udC1mYW1pbHk9InNhbnMtc2VyaWYiIGZvbnQtc2l6ZT0iMTIiIGxlbmd0aEFkanVzdD0ic3BhY2luZyIgdGV4dExlbmd0aD0iMTM4IiB4PSIzNjUiIHk9IjIzNi4yOTY5Ij5UaCYjMjQ0O25nIGImIzIyNTtvIHNhaSB0aCYjMjQ0O25nIHRpbjwvdGV4dD48cG9seWdvbiBmaWxsPSIjRjFGMUYxIiBwb2ludHM9IjM0OS41LDI1My43OTY5LDM2MS41LDI2NS43OTY5LDM0OS41LDI3Ny43OTY5LDMzNy41LDI2NS43OTY5LDM0OS41LDI1My43OTY5IiBzdHlsZT0ic3Ryb2tlOiMxODE4MTg7c3Ryb2tlLXdpZHRoOjAuNTsiLz48ZWxsaXBzZSBjeD0iMzQ5LjUiIGN5PSIzMDguNzk2OSIgZmlsbD0ibm9uZSIgcng9IjExIiByeT0iMTEiIHN0eWxlPSJzdHJva2U6IzIyMjIyMjtzdHJva2Utd2lkdGg6MTsiLz48ZWxsaXBzZSBjeD0iMzQ5LjUiIGN5PSIzMDguNzk2OSIgZmlsbD0iIzIyMjIyMiIgcng9IjYiIHJ5PSI2IiBzdHlsZT0ic3Ryb2tlOiMyMjIyMjI7c3Ryb2tlLXdpZHRoOjE7Ii8+PGxpbmUgc3R5bGU9InN0cm9rZTojMDAwMDAwO3N0cm9rZS13aWR0aDoxLjU7IiB4MT0iMTg5IiB4Mj0iMTg5IiB5MT0iMTEiIHkyPSIzMTkuNzk2OSIvPjxsaW5lIHN0eWxlPSJzdHJva2U6IzAwMDAwMDtzdHJva2Utd2lkdGg6MS41OyIgeDE9IjUxNyIgeDI9IjUxNyIgeTE9IjExIiB5Mj0iMzE5Ljc5NjkiLz48bGluZSBzdHlsZT0ic3Ryb2tlOiMxODE4MTg7c3Ryb2tlLXdpZHRoOjE7IiB4MT0iMTAzIiB4Mj0iMTAzIiB5MT0iNTUuMjY1NiIgeTI9Ijc1LjI2NTYiLz48cG9seWdvbiBmaWxsPSIjMTgxODE4IiBwb2ludHM9Ijk5LDY1LjI2NTYsMTAzLDc1LjI2NTYsMTA3LDY1LjI2NTYsMTAzLDY5LjI2NTYiIHN0eWxlPSJzdHJva2U6IzE4MTgxODtzdHJva2Utd2lkdGg6MTsiLz48bGluZSBzdHlsZT0ic3Ryb2tlOiMxODE4MTg7c3Ryb2tlLXdpZHRoOjE7IiB4MT0iMzIzLjc1IiB4Mj0iMjY1IiB5MT0iMTkyLjk1MzEiIHkyPSIxOTIuOTUzMSIvPjxsaW5lIHN0eWxlPSJzdHJva2U6IzE4MTgxODtzdHJva2Utd2lkdGg6MTsiIHgxPSIyNjUiIHgyPSIyNjUiIHkxPSIxOTIuOTUzMSIgeTI9IjIxNC45NTMxIi8+PHBvbHlnb24gZmlsbD0iIzE4MTgxOCIgcG9pbnRzPSIyNjEsMjA0Ljk1MzEsMjY1LDIxNC45NTMxLDI2OSwyMDQuOTUzMSwyNjUsMjA4Ljk1MzEiIHN0eWxlPSJzdHJva2U6IzE4MTgxODtzdHJva2Utd2lkdGg6MTsiLz48bGluZSBzdHlsZT0ic3Ryb2tlOiMxODE4MTg7c3Ryb2tlLXdpZHRoOjE7IiB4MT0iMzc1LjI1IiB4Mj0iNDM0IiB5MT0iMTkyLjk1MzEiIHkyPSIxOTIuOTUzMSIvPjxsaW5lIHN0eWxlPSJzdHJva2U6IzE4MTgxODtzdHJva2Utd2lkdGg6MTsiIHgxPSI0MzQiIHgyPSI0MzQiIHkxPSIxOTIuOTUzMSIgeTI9IjIxNC45NTMxIi8+PHBvbHlnb24gZmlsbD0iIzE4MTgxOCIgcG9pbnRzPSI0MzAsMjA0Ljk1MzEsNDM0LDIxNC45NTMxLDQzOCwyMDQuOTUzMSw0MzQsMjA4Ljk1MzEiIHN0eWxlPSJzdHJva2U6IzE4MTgxODtzdHJva2Utd2lkdGg6MTsiLz48bGluZSBzdHlsZT0ic3Ryb2tlOiMxODE4MTg7c3Ryb2tlLXdpZHRoOjE7IiB4MT0iMjY1IiB4Mj0iMjY1IiB5MT0iMjQ3Ljc5NjkiIHkyPSIyNjUuNzk2OSIvPjxsaW5lIHN0eWxlPSJzdHJva2U6IzE4MTgxODtzdHJva2Utd2lkdGg6MTsiIHgxPSIyNjUiIHgyPSIzMzcuNSIgeTE9IjI2NS43OTY5IiB5Mj0iMjY1Ljc5NjkiLz48cG9seWdvbiBmaWxsPSIjMTgxODE4IiBwb2ludHM9IjMyNy41LDI2MS43OTY5LDMzNy41LDI2NS43OTY5LDMyNy41LDI2OS43OTY5LDMzMS41LDI2NS43OTY5IiBzdHlsZT0ic3Ryb2tlOiMxODE4MTg7c3Ryb2tlLXdpZHRoOjE7Ii8+PGxpbmUgc3R5bGU9InN0cm9rZTojMTgxODE4O3N0cm9rZS13aWR0aDoxOyIgeDE9IjQzNCIgeDI9IjQzNCIgeTE9IjI0Ny43OTY5IiB5Mj0iMjY1Ljc5NjkiLz48bGluZSBzdHlsZT0ic3Ryb2tlOiMxODE4MTg7c3Ryb2tlLXdpZHRoOjE7IiB4MT0iNDM0IiB4Mj0iMzYxLjUiIHkxPSIyNjUuNzk2OSIgeTI9IjI2NS43OTY5Ii8+PHBvbHlnb24gZmlsbD0iIzE4MTgxOCIgcG9pbnRzPSIzNzEuNSwyNjEuNzk2OSwzNjEuNSwyNjUuNzk2OSwzNzEuNSwyNjkuNzk2OSwzNjcuNSwyNjUuNzk2OSIgc3R5bGU9InN0cm9rZTojMTgxODE4O3N0cm9rZS13aWR0aDoxOyIvPjxsaW5lIHN0eWxlPSJzdHJva2U6IzE4MTgxODtzdHJva2Utd2lkdGg6MTsiIHgxPSIzNDkuNSIgeDI9IjM0OS41IiB5MT0iMTYwLjk1MzEiIHkyPSIxODAuOTUzMSIvPjxwb2x5Z29uIGZpbGw9IiMxODE4MTgiIHBvaW50cz0iMzQ1LjUsMTcwLjk1MzEsMzQ5LjUsMTgwLjk1MzEsMzUzLjUsMTcwLjk1MzEsMzQ5LjUsMTc0Ljk1MzEiIHN0eWxlPSJzdHJva2U6IzE4MTgxODtzdHJva2Utd2lkdGg6MTsiLz48bGluZSBzdHlsZT0ic3Ryb2tlOiMxODE4MTg7c3Ryb2tlLXdpZHRoOjE7IiB4MT0iMzQ5LjUiIHgyPSIzNDkuNSIgeTE9IjI3Ny43OTY5IiB5Mj0iMjk3Ljc5NjkiLz48cG9seWdvbiBmaWxsPSIjMTgxODE4IiBwb2ludHM9IjM0NS41LDI4Ny43OTY5LDM0OS41LDI5Ny43OTY5LDM1My41LDI4Ny43OTY5LDM0OS41LDI5MS43OTY5IiBzdHlsZT0ic3Ryb2tlOiMxODE4MTg7c3Ryb2tlLXdpZHRoOjE7Ii8+PGxpbmUgc3R5bGU9InN0cm9rZTojMTgxODE4O3N0cm9rZS13aWR0aDoxOyIgeDE9IjEwMyIgeDI9IjEwMyIgeTE9IjEwOC4xMDk0IiB5Mj0iMTEzLjEwOTQiLz48bGluZSBzdHlsZT0ic3Ryb2tlOiMxODE4MTg7c3Ryb2tlLXdpZHRoOjE7IiB4MT0iMTAzIiB4Mj0iMzQ5LjUiIHkxPSIxMTMuMTA5NCIgeTI9IjExMy4xMDk0Ii8+PGxpbmUgc3R5bGU9InN0cm9rZTojMTgxODE4O3N0cm9rZS13aWR0aDoxOyIgeDE9IjM0OS41IiB4Mj0iMzQ5LjUiIHkxPSIxMTMuMTA5NCIgeTI9IjEyOC4xMDk0Ii8+PHBvbHlnb24gZmlsbD0iIzE4MTgxOCIgcG9pbnRzPSIzNDUuNSwxMTguMTA5NCwzNDkuNSwxMjguMTA5NCwzNTMuNSwxMTguMTA5NCwzNDkuNSwxMjIuMTA5NCIgc3R5bGU9InN0cm9rZTojMTgxODE4O3N0cm9rZS13aWR0aDoxOyIvPjx0ZXh0IGZpbGw9IiMwMDAwMDAiIGZvbnQtZmFtaWx5PSJzYW5zLXNlcmlmIiBmb250LXNpemU9IjE4IiBsZW5ndGhBZGp1c3Q9InNwYWNpbmciIHRleHRMZW5ndGg9IjM2IiB4PSI4NCIgeT0iMjguMDE1NiI+VXNlcjwvdGV4dD48dGV4dCBmaWxsPSIjMDAwMDAwIiBmb250LWZhbWlseT0ic2Fucy1zZXJpZiIgZm9udC1zaXplPSIxOCIgbGVuZ3RoQWRqdXN0PSJzcGFjaW5nIiB0ZXh0TGVuZ3RoPSI1NCIgeD0iMzI2IiB5PSIyOC4wMTU2Ij5TeXN0ZW08L3RleHQ+PCEtLVNSQz1bZ21hakpZc2d1SWVrSUltZ3VSQm9vdFl1UXNzMTBhV2lCcDR0TEs1RDhJMm5rQld5bG9aNWNla2g5aFlvazJHcmp1UkJvWmxwdVV4Y044TUllYUk1YWVwM01fQkk1S2VveW5JRUozcEkzNkpjV1NzbXZpZkNLejB1Q2s3bWhobnFVcXNXaWpHeTFPdDhyNjlEQldLNUEtVUNxYWdXMkkwajN0VmpwbUNQMURJT2RGNW16dDloaGpJU3ViRzUzUnp5aUNlR1lGNTlYblZjQW5HZFBZOVAxcklPYnZBUDFkSHZWVzQwXS0tPjwvZz48L3N2Zz4=;" vertex="1" parent="1">
            <mxGeometry x="6120" y="-910" width="538" height="331" as="geometry" />
          </mxCell>
        </UserObject>
      </root>
    </mxGraphModel>
  </diagram>
</mxfile>
